<svg width="64" height="20" viewBox="0 0 64 20" fill="none" xmlns="http://www.w3.org/2000/svg">
<path d="M62.2586 15.5711C62.1882 15.5993 62.1389 15.6274 62.1108 15.6556C62.0826 15.6697 62.0333 15.6697 61.9629 15.6556C61.9207 15.7119 61.8644 15.7542 61.794 15.7823C61.7236 15.7964 61.6743 15.8387 61.6461 15.9091C61.4349 15.9795 61.273 16.0428 61.1603 16.0991C60.9069 16.2118 60.7309 16.2892 60.6323 16.3315C60.5478 16.3737 60.4633 16.416 60.3788 16.4582C60.2662 16.43 60.1676 16.4371 60.0832 16.4793C60.0127 16.5216 59.9494 16.5638 59.8931 16.6061C59.7663 16.6201 59.6396 16.6201 59.5129 16.6061C59.3862 16.592 59.2876 16.5849 59.2172 16.5849C59.0764 16.5568 58.9849 16.5427 58.9426 16.5427C58.9144 16.5427 58.9004 16.5286 58.9004 16.5005C58.844 16.5145 58.8018 16.5145 58.7736 16.5005C58.7455 16.4864 58.7103 16.4793 58.668 16.4793C58.5272 16.3948 58.4357 16.3526 58.3935 16.3526C58.3512 16.3385 58.316 16.3174 58.2879 16.2892C58.2879 16.2752 58.2526 16.2611 58.1822 16.247C58.1259 16.2329 58.0837 16.24 58.0555 16.2681L57.7598 16.078C57.6331 15.9091 57.5486 15.8246 57.5064 15.8246C57.3937 15.7119 57.3374 15.6274 57.3374 15.5711C57.2811 15.557 57.2388 15.5359 57.2107 15.5078C57.1825 15.4796 57.1403 15.4585 57.0839 15.4444C57.0839 15.3317 57.0769 15.2684 57.0628 15.2543C57.0487 15.2261 57.0347 15.1769 57.0206 15.1065C56.9361 14.9234 56.8939 14.8319 56.8939 14.8319C56.8798 14.7756 56.8587 14.7333 56.8305 14.7052C56.8023 14.6629 56.7812 14.6277 56.7671 14.5995C56.7671 14.5714 56.7671 14.5432 56.7671 14.5151C56.7812 14.4728 56.7812 14.4235 56.7671 14.3672C56.7108 14.2827 56.6826 14.1982 56.6826 14.1138C56.6686 14.0152 56.6474 13.9307 56.6193 13.8603C56.6052 13.804 56.5982 13.7477 56.5982 13.6913C56.6122 13.635 56.6122 13.5928 56.5982 13.5646C56.5559 13.452 56.5348 13.3886 56.5348 13.3745C56.5348 13.3464 56.5489 13.3252 56.577 13.3112C56.5348 13.283 56.5278 13.2337 56.5559 13.1633C56.5841 13.0929 56.57 13.0436 56.5137 13.0155C56.57 12.9591 56.5911 12.8887 56.577 12.8042C56.563 12.7198 56.57 12.6423 56.5982 12.5719C56.6404 12.4733 56.6756 12.3677 56.7038 12.2551C56.746 12.1143 56.7742 12.0298 56.7882 12.0016C56.8164 11.9594 56.8375 11.9242 56.8516 11.896C56.8798 11.7693 56.9009 11.6989 56.915 11.6848C56.9291 11.6567 56.9361 11.6285 56.9361 11.6003C56.9783 11.4314 57.0347 11.3117 57.1051 11.2413C57.1755 11.1568 57.2177 11.0582 57.2318 10.9456C57.2881 10.9315 57.3233 10.8963 57.3374 10.84C57.3656 10.7696 57.4078 10.7203 57.4641 10.6921C57.5064 10.5936 57.5486 10.5372 57.5909 10.5232C57.6472 10.495 57.6824 10.4528 57.6965 10.3964C57.7809 10.3823 57.8373 10.3542 57.8654 10.3119C57.9077 10.2697 57.9429 10.2204 57.971 10.1641C58.0555 10.15 58.1189 10.1219 58.1611 10.0796C58.2174 10.0233 58.2879 9.98809 58.3723 9.97401C58.4005 9.86136 58.4568 9.79096 58.5413 9.76279C58.6399 9.72055 58.7173 9.66423 58.7736 9.59382C58.8863 9.59382 58.9567 9.55158 58.9849 9.4671C59.1679 9.43894 59.2876 9.39669 59.3439 9.34037C59.4002 9.28405 59.4636 9.24181 59.534 9.21364C59.6326 9.19956 59.6959 9.18548 59.7241 9.1714C59.7523 9.14324 59.7945 9.12212 59.8508 9.10804C59.9775 8.99539 60.0409 8.96019 60.0409 9.00243C60.055 9.03059 60.0761 9.03059 60.1043 9.00243C60.1606 8.98835 60.2099 8.96723 60.2521 8.93907C60.3084 8.91091 60.3718 8.88979 60.4422 8.8757C60.5689 8.86162 60.6464 8.85458 60.6745 8.85458C60.7168 8.8405 60.759 8.82642 60.8013 8.81234C60.9984 8.78418 61.1322 8.77714 61.2026 8.79122C61.273 8.81938 61.3645 8.84754 61.4771 8.8757C61.5898 8.90387 61.6813 8.91091 61.7517 8.89683C61.7799 8.92499 61.8151 8.95315 61.8573 8.98131C61.8996 8.99539 61.9348 9.03059 61.9629 9.08692C62.1037 9.18548 62.1882 9.25589 62.2164 9.29813C62.2446 9.34037 62.2868 9.37557 62.3431 9.40373C62.4417 9.5727 62.505 9.70647 62.5332 9.80504C62.5755 9.88952 62.6247 9.98105 62.6811 10.0796C62.6388 10.1923 62.6247 10.2556 62.6388 10.2697C62.6529 10.2697 62.6599 10.2838 62.6599 10.3119C62.6599 10.3401 62.6529 10.3823 62.6388 10.4387C62.6247 10.4809 62.6177 10.5232 62.6177 10.5654C62.6318 10.678 62.6318 10.7696 62.6177 10.84C62.6036 10.9104 62.5966 10.9808 62.5966 11.0512C62.4558 11.2483 62.329 11.375 62.2164 11.4314C62.1178 11.4877 62.0404 11.5722 61.9841 11.6848C61.8573 11.7271 61.794 11.7623 61.794 11.7904C61.808 11.8186 61.801 11.8397 61.7728 11.8538C61.6602 11.9242 61.5968 11.9735 61.5828 12.0016C61.5687 12.0157 61.5616 12.0368 61.5616 12.065C61.449 12.1354 61.3434 12.1847 61.2448 12.2129C61.1322 12.2551 61.0547 12.3044 61.0125 12.3607C60.9702 12.4029 60.921 12.4381 60.8646 12.4663C60.8224 12.4945 60.7661 12.5156 60.6957 12.5297C60.6393 12.5438 60.5901 12.586 60.5478 12.6564C60.3929 12.6846 60.2944 12.7479 60.2521 12.8465C60.0832 12.8465 59.9775 12.8465 59.9353 12.8465C59.8931 12.8324 59.8579 12.8254 59.8297 12.8254C59.6748 12.9099 59.5974 12.9451 59.5974 12.931C59.5974 12.9169 59.5903 12.9169 59.5762 12.931C59.534 12.9451 59.4847 12.9451 59.4284 12.931C59.3721 12.9169 59.3087 12.9028 59.2383 12.8887C59.2101 12.8746 59.1679 12.8817 59.1116 12.9099C59.0553 12.9239 59.013 12.931 58.9849 12.931C58.9004 12.9451 58.83 12.931 58.7736 12.8887C58.7173 12.8324 58.6328 12.8183 58.5202 12.8465C58.4779 12.8183 58.4357 12.7902 58.3935 12.762C58.3653 12.7338 58.3231 12.7338 58.2667 12.762C58.2526 12.7761 58.2386 12.8254 58.2245 12.9099C58.2245 12.9943 58.2526 13.0225 58.309 12.9943C58.2526 13.0647 58.2245 13.1492 58.2245 13.2478C58.2245 13.3323 58.2597 13.4027 58.3301 13.459C58.2879 13.6139 58.3019 13.7547 58.3723 13.8814C58.4568 13.9941 58.5061 14.1208 58.5202 14.2616C58.5906 14.3743 58.668 14.4658 58.7525 14.5362C58.8511 14.5925 58.9215 14.677 58.9637 14.7896C59.0764 14.846 59.182 14.9093 59.2805 14.9797C59.3932 15.0501 59.5058 15.1276 59.6185 15.2121C59.703 15.2402 59.7663 15.2684 59.8086 15.2965C59.8649 15.3106 59.9212 15.3177 59.9775 15.3177C60.0902 15.4162 60.1817 15.4655 60.2521 15.4655C60.4211 15.5218 60.5197 15.557 60.5478 15.5711C60.576 15.5852 60.6041 15.5922 60.6323 15.5922C60.759 15.6204 60.8365 15.6345 60.8646 15.6345C61.0336 15.5922 61.1322 15.5711 61.1603 15.5711C61.2026 15.5711 61.2448 15.557 61.2871 15.5289C61.3997 15.4444 61.4842 15.3951 61.5405 15.381C61.5968 15.3529 61.6461 15.3177 61.6884 15.2754C61.801 15.1909 61.8573 15.1417 61.8573 15.1276C61.8714 15.0994 61.8925 15.0783 61.9207 15.0642C62.0193 14.9234 62.0685 14.846 62.0685 14.8319C62.1249 14.8178 62.1601 14.7896 62.1741 14.7474C62.2023 14.7052 62.2305 14.6699 62.2586 14.6418C62.3431 14.5432 62.3924 14.4939 62.4065 14.4939C62.4346 14.4799 62.4628 14.4658 62.491 14.4517C62.5614 14.3109 62.6036 14.2334 62.6177 14.2194C62.6459 14.1912 62.6811 14.163 62.7233 14.1349C62.9204 14.0222 63.0401 13.9448 63.0824 13.9025C63.195 13.9307 63.2795 13.9166 63.3358 13.8603C63.3921 13.804 63.4555 13.7899 63.5259 13.8181C63.5541 13.9448 63.5681 14.0152 63.5681 14.0293C63.5681 14.0434 63.5752 14.0574 63.5893 14.0715C63.5752 14.1138 63.5329 14.1419 63.4625 14.156C63.3921 14.156 63.364 14.1912 63.3781 14.2616C63.3077 14.4306 63.2584 14.5432 63.2302 14.5995C63.2161 14.6559 63.1809 14.7052 63.1246 14.7474C63.0964 14.8741 63.019 14.9516 62.8923 14.9797C62.8078 15.0642 62.7515 15.1346 62.7233 15.1909C62.5966 15.2191 62.5262 15.2754 62.5121 15.3599L62.2586 15.5711ZM59.0482 11.7482C59.1045 11.7623 59.1749 11.7834 59.2594 11.8115C59.3439 11.8397 59.4002 11.8679 59.4284 11.896C59.5129 11.882 59.5903 11.882 59.6607 11.896C59.7311 11.896 59.7945 11.9031 59.8508 11.9172C60.0339 11.9453 60.1465 11.9453 60.1888 11.9172C60.231 11.889 60.2803 11.8749 60.3366 11.8749C60.4915 11.889 60.5689 11.889 60.5689 11.8749C60.583 11.8468 60.6041 11.8256 60.6323 11.8115C60.8154 11.6707 60.9421 11.5863 61.0125 11.5581C61.0125 11.5159 61.0195 11.4807 61.0336 11.4525C61.0618 11.4102 61.0829 11.368 61.097 11.3258C61.097 11.2694 61.0899 11.2131 61.0758 11.1568C61.0618 11.0864 61.0547 11.023 61.0547 10.9667C61.0547 10.8259 61.0406 10.7414 61.0125 10.7132C60.9843 10.671 60.9843 10.6288 61.0125 10.5865C60.9421 10.4739 60.8787 10.4035 60.8224 10.3753C60.7802 10.3471 60.759 10.2979 60.759 10.2275C60.7027 10.1711 60.6605 10.1359 60.6323 10.1219C60.6041 10.1078 60.5901 10.0796 60.5901 10.0374C60.3648 9.91064 60.1888 9.85432 60.062 9.8684C59.9071 9.88248 59.8297 9.88952 59.8297 9.88952C59.8297 9.87544 59.8227 9.8684 59.8086 9.8684C59.6678 9.92472 59.5762 9.95289 59.534 9.95289C59.5058 9.9388 59.4706 9.94584 59.4284 9.97401C59.3157 10.1148 59.2313 10.2063 59.1749 10.2486C59.1327 10.2767 59.0975 10.326 59.0693 10.3964C58.9426 10.5513 58.844 10.6569 58.7736 10.7132C58.7173 10.7696 58.7032 10.8259 58.7314 10.8822C58.6892 11.0653 58.6821 11.1779 58.7103 11.2202C58.7525 11.2624 58.7596 11.3117 58.7314 11.368C58.7877 11.4243 58.844 11.4877 58.9004 11.5581C58.9567 11.6144 59.006 11.6778 59.0482 11.7482Z" fill="white"/>
<path d="M53.3184 3.59559C53.3888 3.8068 53.4522 3.91945 53.5085 3.93353C53.5648 4.06026 53.6282 4.16586 53.6986 4.25035C53.6845 4.32075 53.6915 4.37707 53.7197 4.41932C53.7479 4.44748 53.776 4.47564 53.8042 4.5038C53.7901 4.65869 53.8253 4.79246 53.9098 4.9051C53.8816 4.97551 53.8816 5.02479 53.9098 5.05295C53.938 5.08111 53.9239 5.10927 53.8676 5.13744C53.9661 5.27824 54.0013 5.34865 53.9732 5.34865C53.9591 5.34865 53.952 5.36273 53.952 5.39089C53.9802 5.43313 53.9872 5.51058 53.9732 5.62322C53.9591 5.72179 53.9661 5.78515 53.9943 5.81331C54.0647 5.81331 54.121 5.81331 54.1633 5.81331C54.2055 5.81331 54.2618 5.80627 54.3322 5.79219C54.5012 5.77811 54.5927 5.76403 54.6068 5.74995C54.635 5.73587 54.6631 5.72179 54.6913 5.70771C54.9729 5.69363 55.1419 5.70067 55.1982 5.72883C55.2686 5.71475 55.3249 5.69363 55.3672 5.66547C55.4235 5.6373 55.4868 5.6373 55.5573 5.66547C55.6277 5.65139 55.6769 5.6373 55.7051 5.62322C55.7473 5.60914 55.7825 5.61618 55.8107 5.64434C55.8529 5.58802 55.9093 5.5669 55.9797 5.58098C56.0501 5.58098 56.0994 5.55986 56.1275 5.51762C56.2261 5.50354 56.2965 5.4965 56.3387 5.4965C56.3951 5.48242 56.4514 5.45425 56.5077 5.41201C56.6767 5.53874 56.7471 5.69363 56.7189 5.87668C56.5781 6.0034 56.4936 6.05973 56.4655 6.04565C56.4514 6.03157 56.4232 6.03157 56.381 6.04565C56.3247 6.11605 56.2895 6.16533 56.2754 6.1935C56.2613 6.20758 56.2331 6.22166 56.1909 6.23574C56.0501 6.32022 55.9726 6.37655 55.9586 6.40471C55.9445 6.41879 55.9234 6.43287 55.8952 6.44695C55.7825 6.5596 55.7121 6.61592 55.684 6.61592C55.6558 6.60184 55.6277 6.60184 55.5995 6.61592C55.4305 6.68632 55.3179 6.73561 55.2616 6.76377C55.2052 6.77785 55.1278 6.77081 55.0292 6.74265C54.8321 6.77081 54.7054 6.79897 54.649 6.82713C54.5927 6.84121 54.5294 6.84825 54.459 6.84825C54.4167 6.84825 54.3745 6.84825 54.3322 6.84825C54.29 6.83417 54.2477 6.82713 54.2055 6.82713C54.1069 6.84121 54.0365 6.86937 53.9943 6.91162C53.9661 6.93978 53.938 6.98906 53.9098 7.05946C53.8957 7.08763 53.8816 7.12987 53.8676 7.18619C53.8535 7.24251 53.8464 7.30588 53.8464 7.37628C53.8887 7.54525 53.9028 7.64382 53.8887 7.67198C53.8746 7.70014 53.8605 7.73534 53.8464 7.77758C53.8605 7.81983 53.8746 7.86207 53.8887 7.90431C53.9028 7.93247 53.9098 7.97472 53.9098 8.03104C53.9098 8.10144 53.9028 8.16481 53.8887 8.22113C53.8887 8.27745 53.8957 8.34786 53.9098 8.43234C53.9239 8.53091 53.9239 8.58723 53.9098 8.60131C53.8957 8.61539 53.8887 8.63651 53.8887 8.66467C53.9028 8.80548 53.8957 8.92517 53.8676 9.02373C53.8535 9.10822 53.8535 9.18566 53.8676 9.25607C53.8816 9.38279 53.8816 9.46024 53.8676 9.4884C53.8535 9.50248 53.8394 9.5236 53.8253 9.55176C53.7972 9.63625 53.7972 9.73481 53.8253 9.84746C53.8676 9.94603 53.8535 10.0305 53.7831 10.1009C53.8253 10.298 53.8253 10.4741 53.7831 10.6289C53.7408 10.7838 53.7549 10.9035 53.8253 10.988C53.7831 11.1147 53.762 11.1851 53.762 11.1992C53.776 11.1992 53.7831 11.2063 53.7831 11.2203C53.7549 11.3752 53.7408 11.4597 53.7408 11.4738C53.6563 11.6428 53.6282 11.7484 53.6563 11.7906C53.6845 11.8329 53.6775 11.8681 53.6352 11.8962C53.6493 11.9666 53.6563 12.03 53.6563 12.0863C53.6704 12.1426 53.6775 12.213 53.6775 12.2975C53.6775 12.3257 53.6704 12.3679 53.6563 12.4242C53.6423 12.4665 53.6352 12.5017 53.6352 12.5299C53.6352 12.727 53.6352 12.8607 53.6352 12.9312C53.6493 13.0016 53.6352 13.072 53.593 13.1424C53.6071 13.2973 53.6211 13.431 53.6352 13.5437C53.6493 13.6422 53.6704 13.7197 53.6986 13.776C53.6563 13.945 53.6423 14.0576 53.6563 14.1139C53.6704 14.2547 53.6704 14.3322 53.6563 14.3463C53.6423 14.3604 53.6352 14.3744 53.6352 14.3885C53.6352 14.5293 53.6423 14.6279 53.6563 14.6842C53.6704 14.825 53.6845 14.9025 53.6986 14.9165C53.7127 14.9306 53.7197 14.9447 53.7197 14.9588C53.7056 15.0433 53.7056 15.1066 53.7197 15.1489C53.7338 15.177 53.7408 15.1982 53.7408 15.2122C53.7408 15.3108 53.7549 15.3742 53.7831 15.4023C53.8253 15.4305 53.8394 15.4727 53.8253 15.5291C53.8535 15.6276 53.8746 15.6839 53.8887 15.698C53.9028 15.7121 53.9098 15.7403 53.9098 15.7825C53.9802 15.9092 54.0224 15.9867 54.0365 16.0148C54.0647 16.0289 54.0858 16.05 54.0999 16.0782C54.1985 16.2331 54.2689 16.3176 54.3111 16.3317C54.3674 16.3457 54.4026 16.3809 54.4167 16.4373C54.5294 16.5499 54.5927 16.6062 54.6068 16.6062C54.6772 16.5922 54.7335 16.5992 54.7758 16.6274C54.818 16.6555 54.8743 16.6626 54.9447 16.6485C55.0996 16.733 55.1982 16.7611 55.2404 16.733C55.2827 16.7048 55.3179 16.7048 55.346 16.733C55.5995 16.6485 55.7473 16.5429 55.7896 16.4161C55.86 16.4161 55.9093 16.395 55.9374 16.3528C55.9797 16.2965 56.0501 16.2683 56.1486 16.2683C56.1909 16.2401 56.219 16.2049 56.2331 16.1627C56.2613 16.1205 56.2895 16.0852 56.3176 16.0571C56.3739 16.0712 56.4162 16.0782 56.4443 16.0782C56.4725 16.0641 56.5147 16.0571 56.5711 16.0571C56.5992 16.1416 56.5781 16.1838 56.5077 16.1838C56.4373 16.1838 56.4091 16.2261 56.4232 16.3105C56.3387 16.4232 56.2824 16.5006 56.2543 16.5429C56.2261 16.5851 56.1979 16.6203 56.1698 16.6485C56.0008 16.7611 55.86 16.8456 55.7473 16.9019C55.6347 16.9723 55.5432 17.0639 55.4728 17.1765C55.4024 17.1765 55.339 17.1836 55.2827 17.1976C55.2264 17.2117 55.1559 17.2258 55.0715 17.2399C54.9307 17.3244 54.8603 17.3807 54.8603 17.4088C54.8603 17.437 54.8462 17.4581 54.818 17.4722C54.7898 17.5004 54.7476 17.5144 54.6913 17.5144C54.635 17.5144 54.5786 17.5285 54.5223 17.5567C54.3674 17.6271 54.2829 17.6553 54.2689 17.6412C54.2548 17.6271 54.2337 17.6201 54.2055 17.6201C54.0929 17.6623 54.0154 17.6834 53.9732 17.6834C53.9309 17.6834 53.8957 17.6975 53.8676 17.7257C53.7831 17.7116 53.6986 17.6975 53.6141 17.6834C53.5296 17.6834 53.4733 17.6482 53.4451 17.5778C53.3466 17.5919 53.2762 17.5778 53.2339 17.5356C53.2058 17.4933 53.1776 17.4511 53.1494 17.4088C53.0227 17.3666 52.9523 17.3244 52.9382 17.2821C52.9241 17.254 52.8819 17.2399 52.8115 17.2399C52.7129 17.0991 52.6566 17.0146 52.6425 16.9864C52.6284 16.9723 52.6144 16.9512 52.6003 16.9231C52.5299 16.8527 52.4806 16.7752 52.4524 16.6907C52.4384 16.5922 52.382 16.5218 52.2835 16.4795C52.2694 16.3105 52.2553 16.219 52.2412 16.2049C52.2271 16.1768 52.2201 16.1486 52.2201 16.1205C52.1638 16.0219 52.1567 15.9374 52.199 15.867C52.1567 15.8107 52.1427 15.7544 52.1567 15.698C52.1849 15.6417 52.1638 15.5924 52.0934 15.5502C52.1497 15.522 52.1708 15.4868 52.1567 15.4446C52.1427 15.4023 52.1356 15.3319 52.1356 15.2334C52.1497 15.1207 52.1497 15.0574 52.1356 15.0433C52.1215 15.0151 52.1075 14.9729 52.0934 14.9165C52.0934 14.6772 52.1004 14.5012 52.1145 14.3885C52.1286 14.2618 52.1145 14.1632 52.0723 14.0928C52.1145 13.9943 52.1286 13.9238 52.1145 13.8816C52.1004 13.8253 52.0934 13.783 52.0934 13.7549C52.0934 13.6845 52.1004 13.6211 52.1145 13.5648C52.1286 13.4944 52.1215 13.431 52.0934 13.3747C52.1215 13.248 52.1427 13.1635 52.1567 13.1212C52.1849 13.0649 52.206 13.0086 52.2201 12.9523C52.1919 12.7974 52.1919 12.6847 52.2201 12.6143C52.2483 12.5299 52.2623 12.4524 52.2623 12.382C52.2764 12.213 52.2764 12.1004 52.2623 12.0441C52.2623 11.9737 52.2694 11.9033 52.2835 11.8329C52.2835 11.692 52.2975 11.5935 52.3257 11.5372C52.3116 11.3823 52.3187 11.2767 52.3468 11.2203C52.375 11.164 52.375 11.1147 52.3468 11.0725C52.3609 10.9458 52.375 10.8613 52.3891 10.819C52.4032 10.7627 52.4102 10.7205 52.4102 10.6923C52.4102 10.6501 52.4032 10.6078 52.3891 10.5656C52.375 10.5093 52.368 10.46 52.368 10.4177C52.368 10.2769 52.3891 10.1572 52.4313 10.0587C52.4736 9.94603 52.4736 9.86154 52.4313 9.80522C52.4736 9.76298 52.4876 9.71369 52.4736 9.65737C52.4595 9.58697 52.4524 9.51656 52.4524 9.44616C52.4524 9.27719 52.4524 9.17158 52.4524 9.12934C52.4665 9.04486 52.4736 8.98853 52.4736 8.96037C52.4736 8.93221 52.4806 8.90405 52.4947 8.87589C52.4806 8.80548 52.4806 8.73508 52.4947 8.66467C52.5088 8.58019 52.5017 8.50274 52.4736 8.43234C52.5158 8.33378 52.5299 8.23521 52.5158 8.13664C52.5017 8.024 52.5158 7.93951 52.558 7.88319C52.5299 7.82687 52.5299 7.77758 52.558 7.73534C52.5862 7.67902 52.6003 7.62974 52.6003 7.58749C52.5862 7.48893 52.5862 7.41852 52.6003 7.37628C52.6144 7.33404 52.6214 7.29884 52.6214 7.27068C52.4243 7.15803 52.2623 7.12987 52.1356 7.18619C52.0089 7.22843 51.8822 7.22843 51.7554 7.18619C51.6146 7.22843 51.502 7.25659 51.4175 7.27068C51.3471 7.27068 51.2767 7.27068 51.2063 7.27068C51.0232 7.29884 50.9247 7.31292 50.9106 7.31292C50.7698 7.28476 50.6923 7.28476 50.6783 7.31292C50.6642 7.34108 50.6431 7.35516 50.6149 7.35516C50.5304 7.22843 50.4811 7.16507 50.467 7.16507C50.453 7.16507 50.4389 7.15099 50.4248 7.12283C50.4248 6.95386 50.4459 6.84825 50.4882 6.80601C50.5163 6.76377 50.5656 6.73561 50.636 6.72153C50.7346 6.63704 50.7698 6.56664 50.7416 6.51031C50.9106 6.46807 51.0092 6.39063 51.0373 6.27798C51.1077 6.2639 51.1711 6.24982 51.2274 6.23574C51.2837 6.20758 51.326 6.15829 51.3541 6.08789C51.5935 6.10197 51.7625 6.08789 51.861 6.04565C51.8892 6.04565 51.9244 6.04565 51.9667 6.04565C52.023 6.03157 52.0652 6.01749 52.0934 6.0034C52.1356 6.0034 52.206 6.01749 52.3046 6.04565C52.4032 6.05973 52.4736 6.05973 52.5158 6.04565C52.5299 5.96116 52.5369 5.8274 52.5369 5.64434C52.551 5.46129 52.5299 5.34865 52.4736 5.30641C52.4032 5.20784 52.3609 5.12336 52.3468 5.05295C52.3468 4.96847 52.3116 4.91214 52.2412 4.88398C52.1286 4.7995 52.0371 4.75021 51.9667 4.73613C51.8962 4.72205 51.847 4.72909 51.8188 4.75726C51.6921 4.81358 51.6076 4.85582 51.5653 4.88398C51.5372 4.89806 51.4949 4.91214 51.4386 4.92622L51.1218 5.05295C51.0936 5.01071 51.0655 4.97551 51.0373 4.94735C51.0092 4.9051 50.9951 4.84878 50.9951 4.77838C51.0373 4.67981 51.0725 4.62349 51.1007 4.60941C51.1288 4.59533 51.1429 4.56012 51.1429 4.5038C51.2697 4.46156 51.3541 4.37707 51.3964 4.25035C51.4809 4.2081 51.5583 4.1729 51.6287 4.14474C51.7132 4.1025 51.7625 4.03209 51.7766 3.93353C51.861 3.96169 51.9385 3.95465 52.0089 3.91241C52.0934 3.87017 52.1497 3.81384 52.1779 3.74344C52.3046 3.71528 52.382 3.7012 52.4102 3.7012C52.4524 3.68712 52.4736 3.66599 52.4736 3.63783C52.6425 3.58151 52.7341 3.56039 52.7481 3.57447C52.7763 3.57447 52.8045 3.56743 52.8326 3.55335C53.0016 3.52519 53.0861 3.52519 53.0861 3.55335C53.0861 3.56743 53.0931 3.58151 53.1072 3.59559H53.3184Z" fill="white"/>
<path d="M48.8775 10.3548C48.8494 10.5237 48.8353 10.6153 48.8353 10.6294C48.8494 10.6434 48.8564 10.6575 48.8564 10.6716C48.8423 10.7842 48.8353 10.8617 48.8353 10.9039C48.8494 10.9462 48.8494 10.9884 48.8353 11.0307C48.8212 11.0588 48.793 11.094 48.7508 11.1363C48.7226 11.1644 48.7226 11.2067 48.7508 11.263C48.6663 11.3756 48.6382 11.439 48.6663 11.4531C48.6945 11.4672 48.7086 11.4812 48.7086 11.4953C48.7226 11.6502 48.7226 11.7488 48.7086 11.791C48.6945 11.8333 48.6874 11.8685 48.6874 11.8966C48.6874 12.0797 48.6734 12.1853 48.6452 12.2134C48.6593 12.2979 48.6522 12.3754 48.6241 12.4458C48.61 12.5162 48.6241 12.5725 48.6663 12.6147C48.6804 12.7696 48.6804 12.8682 48.6663 12.9104C48.6663 12.9386 48.6804 12.9738 48.7086 13.016C48.6522 13.185 48.6311 13.2836 48.6452 13.3117C48.7015 13.4666 48.7297 13.5793 48.7297 13.6497C48.7297 13.706 48.7508 13.7623 48.793 13.8186C48.7508 13.9313 48.7438 14.0369 48.7719 14.1355C48.8001 14.234 48.8212 14.3396 48.8353 14.4523C48.8212 14.6072 48.8212 14.6917 48.8353 14.7057C48.8494 14.7057 48.8564 14.7198 48.8564 14.748C48.8846 14.8184 48.8986 14.9029 48.8986 15.0014C48.8986 15.0859 48.9198 15.1563 48.962 15.2126C48.962 15.4098 49.0113 15.5295 49.1099 15.5717C49.0958 15.6703 49.1028 15.7266 49.131 15.7407C49.1591 15.7548 49.1732 15.7759 49.1732 15.804C49.1451 15.8744 49.1521 15.9308 49.1943 15.973C49.2366 16.0012 49.2366 16.0364 49.1943 16.0786C49.2507 16.1068 49.307 16.1279 49.3633 16.142C49.4196 16.142 49.4619 16.1631 49.49 16.2053C49.5745 16.2053 49.6449 16.2194 49.7013 16.2476C49.7717 16.2757 49.8421 16.2687 49.9125 16.2265C50.0251 16.1701 50.0955 16.1138 50.1237 16.0575C50.2222 16.0575 50.2926 16.0434 50.3349 16.0153C50.3912 15.9871 50.4475 15.9589 50.5039 15.9308C50.5461 15.8744 50.5813 15.8463 50.6095 15.8463C50.6376 15.8322 50.6728 15.8252 50.7151 15.8252C50.6869 15.8815 50.6587 15.9308 50.6306 15.973C50.6024 16.0153 50.6024 16.0786 50.6306 16.1631C50.5602 16.1913 50.4898 16.2265 50.4194 16.2687C50.3631 16.2969 50.3138 16.3462 50.2715 16.4166C50.1307 16.5292 50.0462 16.5996 50.0181 16.6278C49.9899 16.6559 49.9477 16.67 49.8913 16.67C49.7505 16.7967 49.6801 16.8883 49.6801 16.9446C49.6379 16.9727 49.5886 16.9868 49.5323 16.9868C49.49 17.0009 49.4548 17.022 49.4267 17.0502C49.3422 17.1488 49.2859 17.198 49.2577 17.198C49.2436 17.198 49.2295 17.2192 49.2155 17.2614C49.0183 17.3036 48.8846 17.3177 48.8142 17.3036C48.7578 17.3036 48.6945 17.3036 48.6241 17.3036C48.4833 17.2755 48.3917 17.2332 48.3495 17.1769C48.3073 17.1347 48.258 17.1347 48.2016 17.1769C48.1735 17.0784 48.1031 17.0361 47.9904 17.0502C47.92 16.9657 47.8708 16.8953 47.8426 16.839C47.8285 16.7967 47.7933 16.7615 47.737 16.7334C47.7229 16.7052 47.7159 16.67 47.7159 16.6278C47.7159 16.5714 47.7088 16.5292 47.6947 16.501C47.6807 16.4729 47.6595 16.4306 47.6314 16.3743C47.6173 16.3039 47.6173 16.2405 47.6314 16.1842C47.5469 15.9448 47.4835 15.7759 47.4413 15.6773C47.4131 15.5787 47.4131 15.4872 47.4413 15.4027C47.4131 15.2901 47.392 15.2197 47.3779 15.1915C47.3638 15.1493 47.3568 15.1211 47.3568 15.107C47.3568 15.0226 47.3498 14.9522 47.3357 14.8958C47.3357 14.8395 47.3357 14.7691 47.3357 14.6846C47.3498 14.5016 47.3427 14.3819 47.3146 14.3256C47.3005 14.2552 47.2934 14.1847 47.2934 14.1143C47.3075 13.9595 47.3075 13.875 47.2934 13.8609C47.2934 13.8468 47.2934 13.8257 47.2934 13.7975C47.3075 13.6708 47.3075 13.5934 47.2934 13.5652C47.2794 13.537 47.2723 13.5089 47.2723 13.4807C47.1174 13.5652 47.0189 13.6286 46.9766 13.6708C46.9485 13.699 46.9203 13.7342 46.8921 13.7764C46.864 13.8609 46.8288 13.9172 46.7865 13.9454C46.7443 13.9595 46.7091 13.9806 46.6809 14.0087C46.5964 14.0791 46.5472 14.1355 46.5331 14.1777C46.5331 14.22 46.519 14.2552 46.4908 14.2833C46.4063 14.3396 46.35 14.3819 46.3219 14.41C46.3078 14.4241 46.3078 14.4593 46.3219 14.5156C46.2655 14.5438 46.2233 14.579 46.1951 14.6213C46.167 14.6635 46.1177 14.6987 46.0473 14.7269C45.9769 14.8254 45.9065 14.9099 45.8361 14.9803C45.7657 15.0507 45.7023 15.1 45.646 15.1282C45.6037 15.1422 45.5685 15.1774 45.5404 15.2338C45.4277 15.3042 45.3573 15.3605 45.3292 15.4027C45.3151 15.445 45.2869 15.4802 45.2447 15.5083C45.118 15.5787 45.0476 15.628 45.0335 15.6562C45.0194 15.6703 44.9983 15.6703 44.9701 15.6562C44.7871 15.8111 44.6955 15.9096 44.6955 15.9519C44.5547 16.0082 44.4702 16.0575 44.4421 16.0997C44.4139 16.142 44.3576 16.1561 44.2731 16.142C44.1323 16.2265 43.9915 16.2617 43.8507 16.2476C43.7099 16.2194 43.5972 16.1913 43.5127 16.1631C43.4564 16.1349 43.4142 16.1138 43.386 16.0997C43.3579 16.0857 43.3156 16.0716 43.2593 16.0575C43.1326 15.9871 43.0551 15.9308 43.027 15.8885C42.9988 15.8322 42.9495 15.79 42.8791 15.7618C42.9214 15.6914 42.9214 15.628 42.8791 15.5717C42.8369 15.5013 42.8017 15.445 42.7735 15.4027C42.7876 15.3323 42.7876 15.2831 42.7735 15.2549C42.7594 15.2126 42.7453 15.1774 42.7313 15.1493C42.7172 14.9803 42.7172 14.8888 42.7313 14.8747C42.7453 14.8606 42.7524 14.8465 42.7524 14.8325C42.7524 14.7761 42.7453 14.7269 42.7313 14.6846C42.7172 14.6283 42.7172 14.572 42.7313 14.5156C42.7876 14.3608 42.8087 14.2481 42.7946 14.1777C42.7946 14.1073 42.8087 14.0439 42.8369 13.9876C42.8791 13.9172 42.8932 13.8679 42.8791 13.8398C42.8791 13.7975 42.8862 13.7623 42.9002 13.7342C42.9706 13.6215 43.0058 13.5511 43.0058 13.523C43.034 13.3681 43.0551 13.2906 43.0692 13.2906C43.0974 13.1921 43.1255 13.1357 43.1537 13.1217C43.1959 13.0935 43.203 13.0512 43.1748 12.9949C43.2311 12.8964 43.2593 12.833 43.2593 12.8048C43.2734 12.7767 43.2875 12.7485 43.3015 12.7203C43.3579 12.7063 43.4001 12.6711 43.4283 12.6147C43.4564 12.5584 43.4564 12.4951 43.4283 12.4247C43.555 12.3683 43.6184 12.319 43.6184 12.2768C43.6184 12.2205 43.6324 12.1712 43.6606 12.129C43.7592 12.0586 43.8507 12.0022 43.9352 11.96C44.0197 11.9037 44.0619 11.8121 44.0619 11.6854C44.1464 11.5868 44.2097 11.5305 44.252 11.5164C44.3083 11.4883 44.3435 11.439 44.3576 11.3686C44.3998 11.3404 44.435 11.3123 44.4632 11.2841C44.4914 11.2419 44.5195 11.2067 44.5477 11.1785C44.6181 11.1081 44.6533 11.0659 44.6533 11.0518C44.6533 11.0377 44.6674 11.0166 44.6955 10.9884C44.8504 10.9039 44.9419 10.8476 44.9701 10.8194C45.0687 10.7068 45.132 10.6364 45.1602 10.6082C45.1884 10.5801 45.2306 10.5589 45.2869 10.5449C45.3996 10.4463 45.5122 10.3689 45.6249 10.3125C45.6812 10.2844 45.7234 10.2703 45.7516 10.2703C45.7938 10.2562 45.829 10.228 45.8572 10.1858C45.9839 10.1576 46.0966 10.1295 46.1951 10.1013C46.3923 10.0028 46.5401 9.96755 46.6387 9.99572C46.7372 10.0098 46.8569 10.0098 46.9977 9.99572C47.1386 10.052 47.223 10.0943 47.2512 10.1224C47.2934 10.1506 47.3286 10.1717 47.3568 10.1858C47.399 10.1858 47.4483 10.1788 47.5047 10.1647C47.561 10.1506 47.6103 10.1576 47.6525 10.1858C47.7933 10.2985 47.8708 10.3548 47.8848 10.3548C47.913 10.3548 47.9412 10.3689 47.9693 10.397C48.1383 10.4815 48.265 10.4956 48.3495 10.4393C48.434 10.3829 48.5114 10.3337 48.5818 10.2914C48.6382 10.3055 48.6874 10.3125 48.7297 10.3125C48.786 10.2985 48.8353 10.3125 48.8775 10.3548ZM46.2796 11.2841C46.2092 11.2841 46.1599 11.27 46.1318 11.2419C46.1177 11.2137 46.0966 11.1926 46.0684 11.1785C45.9417 11.1503 45.8361 11.1574 45.7516 11.1996C45.6671 11.2419 45.5685 11.263 45.4559 11.263C45.3151 11.3897 45.2447 11.4601 45.2447 11.4742C45.1602 11.5868 45.0968 11.6643 45.0546 11.7065C45.0124 11.7488 45.0053 11.8051 45.0335 11.8755C44.8645 11.9459 44.78 12.0304 44.78 12.129C44.78 12.2275 44.7307 12.2909 44.6322 12.319C44.6181 12.3894 44.597 12.4528 44.5688 12.5091C44.5406 12.5655 44.5195 12.6288 44.5054 12.6992C44.4632 12.8682 44.4421 12.9597 44.4421 12.9738C44.4562 12.9879 44.4562 13.009 44.4421 13.0372C44.4139 13.1076 44.3787 13.1709 44.3365 13.2273C44.3083 13.2836 44.3083 13.3329 44.3365 13.3751C44.2942 13.53 44.2661 13.6356 44.252 13.6919C44.2379 13.7482 44.2168 13.8116 44.1886 13.882C44.2027 14.0087 44.2097 14.1073 44.2097 14.1777C44.2097 14.2481 44.2168 14.3256 44.2309 14.41C44.259 14.4945 44.2731 14.572 44.2731 14.6424C44.3858 14.755 44.4421 14.8113 44.4421 14.8113C44.4562 14.8113 44.4632 14.8184 44.4632 14.8325C44.6603 14.8606 44.7659 14.8817 44.78 14.8958C44.8082 14.9099 44.8504 14.931 44.9067 14.9592C44.9771 14.8888 45.0476 14.8325 45.118 14.7902C45.1884 14.748 45.2376 14.6705 45.2658 14.5579C45.4066 14.4312 45.4911 14.3467 45.5193 14.3044C45.5615 14.2481 45.6178 14.2059 45.6882 14.1777C45.829 13.9947 45.8994 13.9031 45.8994 13.9031C46.0121 13.8186 46.0755 13.7482 46.0895 13.6919C46.1177 13.6356 46.1459 13.5582 46.174 13.4596C46.2444 13.4033 46.2867 13.3681 46.3007 13.354C46.3289 13.3258 46.3359 13.2836 46.3219 13.2273C46.35 13.1709 46.3782 13.1217 46.4063 13.0794C46.4486 13.0231 46.4697 12.9597 46.4697 12.8893C46.5401 12.8612 46.5824 12.826 46.5964 12.7837C46.6246 12.7274 46.6739 12.6992 46.7443 12.6992C46.7584 12.5584 46.7795 12.481 46.8077 12.4669C46.8358 12.4387 46.8781 12.4247 46.9344 12.4247C46.9625 12.2698 46.9907 12.1571 47.0189 12.0867C47.047 12.0163 47.0752 11.9459 47.1033 11.8755C47.0048 11.7629 46.9555 11.6784 46.9555 11.622C46.8429 11.5516 46.7724 11.5164 46.7443 11.5164C46.7302 11.5024 46.7161 11.4812 46.702 11.4531C46.6457 11.4249 46.5894 11.4038 46.5331 11.3897C46.4908 11.3616 46.4416 11.3404 46.3852 11.3263L46.2796 11.2841Z" fill="white"/>
<path d="M27.7959 10.4184C27.5988 10.531 27.465 10.6085 27.3946 10.6507C27.3101 10.693 27.2116 10.7211 27.0989 10.7352C27.0989 10.6789 27.0707 10.6507 27.0144 10.6507C26.9581 10.6507 26.9159 10.6366 26.8877 10.6085C26.9299 10.4818 26.9581 10.4114 26.9722 10.3973C26.9863 10.3691 26.9933 10.341 26.9933 10.3128C27.0215 10.2846 27.0567 10.2635 27.0989 10.2494C27.1411 10.2213 27.1623 10.179 27.1623 10.1227C27.3312 10.0241 27.4368 9.96077 27.4791 9.93261C27.5073 9.89037 27.5425 9.85516 27.5847 9.827C27.6692 9.74252 27.7185 9.70028 27.7325 9.70028C27.7466 9.68619 27.7677 9.67915 27.7959 9.67915C27.9649 9.59467 28.0634 9.53131 28.0916 9.48906C28.1338 9.44682 28.1972 9.4257 28.2817 9.4257C28.3239 9.38346 28.3662 9.3553 28.4084 9.34122C28.4647 9.31305 28.507 9.27785 28.5351 9.23561C28.7182 9.19337 28.8872 9.13 29.0421 9.04552C29.0843 9.01736 29.1406 9.01032 29.211 9.0244C29.2814 9.03848 29.3307 9.03144 29.3589 9.00328C29.4152 9.03144 29.4715 9.0596 29.5278 9.08776C29.5842 9.11592 29.6475 9.13 29.7179 9.13C29.8165 9.21449 29.9432 9.27785 30.0981 9.32009C30.1263 9.3905 30.1685 9.44682 30.2248 9.48906C30.2812 9.51723 30.3375 9.54539 30.3938 9.57355C30.422 9.72844 30.4501 9.81996 30.4783 9.84812C30.5205 9.87629 30.5557 9.92557 30.5839 9.99597C30.598 10.0945 30.6121 10.1649 30.6261 10.2072C30.6402 10.2353 30.6543 10.2635 30.6684 10.2917C30.6261 10.4043 30.6191 10.4747 30.6473 10.5029C30.6754 10.517 30.6965 10.5451 30.7106 10.5874C30.6965 10.7704 30.7177 10.876 30.774 10.9042C30.8162 11.0027 30.8303 11.0591 30.8162 11.0732C30.8022 11.0872 30.7951 11.1084 30.7951 11.1365C30.8233 11.221 30.8303 11.2844 30.8162 11.3266C30.8022 11.3688 30.8022 11.4181 30.8162 11.4745C30.8866 11.6575 30.9148 11.7631 30.9007 11.7913C30.8866 11.8194 30.8796 11.8546 30.8796 11.8969C31.0204 11.911 31.0908 11.8406 31.0908 11.6857C31.1331 11.6575 31.1612 11.6223 31.1753 11.5801C31.2035 11.5378 31.2457 11.5026 31.302 11.4745C31.3443 11.2914 31.3654 11.1999 31.3654 11.1999C31.4499 11.0591 31.4992 10.9816 31.5132 10.9675C31.5414 10.9394 31.5696 10.9183 31.5977 10.9042C31.5977 10.8338 31.6118 10.7915 31.64 10.7775C31.6822 10.7634 31.7033 10.7211 31.7033 10.6507C31.8019 10.5522 31.8793 10.4818 31.9357 10.4395C31.992 10.3973 32.0272 10.341 32.0413 10.2705C32.0976 10.2565 32.1821 10.2213 32.2947 10.1649C32.3792 10.0805 32.4355 10.0241 32.4637 9.99597C32.4918 9.95373 32.52 9.91149 32.5482 9.86924C32.6327 9.827 32.689 9.78476 32.7171 9.74252C32.7453 9.70028 32.7735 9.65803 32.8016 9.61579C32.9002 9.67211 32.9917 9.67915 33.0762 9.63691C33.2452 9.53835 33.3437 9.47498 33.3719 9.44682C33.4001 9.41866 33.4493 9.41162 33.5197 9.4257C33.562 9.39754 33.6183 9.37642 33.6887 9.36234C33.7591 9.33417 33.8295 9.30601 33.8999 9.27785C34.0548 9.23561 34.1393 9.20745 34.1534 9.19337C34.1815 9.16521 34.2097 9.15112 34.2379 9.15112C34.4491 9.13704 34.611 9.14408 34.7237 9.17225C34.8363 9.20041 34.956 9.20745 35.0827 9.19337C35.125 9.22153 35.1672 9.24969 35.2094 9.27785C35.2517 9.30601 35.2939 9.33417 35.3362 9.36234C35.3784 9.57355 35.4207 9.69324 35.4629 9.7214C35.5051 9.73548 35.5474 9.7566 35.5896 9.78476C35.6319 9.93965 35.6741 10.0523 35.7163 10.1227C35.7586 10.1931 35.8149 10.2565 35.8853 10.3128C35.8712 10.3691 35.8783 10.4114 35.9064 10.4395C35.9346 10.4677 35.9487 10.5099 35.9487 10.5662C35.9768 10.6366 35.9909 10.7071 35.9909 10.7775C36.005 10.8479 36.0191 10.9042 36.0332 10.9464C36.1036 10.9323 36.1599 10.8901 36.2021 10.8197C36.2444 10.7352 36.2585 10.6578 36.2444 10.5874C36.357 10.4466 36.4556 10.341 36.5401 10.2705C36.6246 10.2001 36.6738 10.0945 36.6879 9.95373C36.8006 9.81292 36.871 9.73548 36.8991 9.7214C36.9273 9.69324 36.9414 9.65099 36.9414 9.59467C36.9977 9.56651 37.0399 9.54539 37.0681 9.53131C37.1103 9.50314 37.1526 9.47498 37.1948 9.44682C37.2512 9.36234 37.2864 9.30601 37.3004 9.27785C37.3145 9.24969 37.3356 9.22857 37.3638 9.21449C37.4905 9.11592 37.5609 9.06664 37.575 9.06664C37.5891 9.06664 37.6102 9.0596 37.6384 9.04552C37.6806 8.97511 37.7229 8.93287 37.7651 8.91879C37.8073 8.90471 37.8425 8.87655 37.8707 8.83431C38.0256 8.7639 38.103 8.70758 38.103 8.66534C38.103 8.60901 38.1171 8.56677 38.1453 8.53861C38.2157 8.56677 38.265 8.58085 38.2931 8.58085C38.3354 8.58085 38.3776 8.58085 38.4199 8.58085C38.4762 8.56677 38.5184 8.54565 38.5466 8.51749C38.5888 8.47525 38.6452 8.45413 38.7156 8.45413C38.8845 8.35556 39.0042 8.30628 39.0746 8.30628C39.145 8.2922 39.2154 8.28516 39.2858 8.28516C39.3844 8.29924 39.4759 8.3274 39.5604 8.36964C39.659 8.3978 39.7435 8.3978 39.8139 8.36964C39.8983 8.45413 39.9828 8.50341 40.0673 8.51749C40.0955 8.60197 40.1236 8.67238 40.1518 8.7287C40.194 8.78502 40.2292 8.84839 40.2574 8.91879C40.2996 9.03144 40.3278 9.11592 40.3419 9.17225C40.356 9.22857 40.3701 9.29193 40.3841 9.36234C40.4545 9.47498 40.4827 9.54539 40.4686 9.57355C40.4686 9.60171 40.4686 9.62987 40.4686 9.65803C40.5249 9.85516 40.5601 9.97485 40.5742 10.0171C40.6024 10.0593 40.6024 10.1157 40.5742 10.1861C40.6165 10.2424 40.6446 10.341 40.6587 10.4818C40.6446 10.6085 40.6446 10.6859 40.6587 10.7141C40.6728 10.7282 40.6869 10.7493 40.7009 10.7775C40.715 10.8901 40.7221 10.9957 40.7221 11.0943C40.7221 11.1788 40.7432 11.2703 40.7854 11.3688C40.7573 11.4252 40.7432 11.4885 40.7432 11.5589C40.7573 11.6153 40.7714 11.6786 40.7854 11.749C40.7995 11.8898 40.7995 11.9602 40.7854 11.9602C40.7714 11.9602 40.7714 11.9673 40.7854 11.9814C40.7854 12.0518 40.7925 12.1151 40.8066 12.1715C40.8347 12.2137 40.8488 12.27 40.8488 12.3404C40.8206 12.4531 40.8136 12.5305 40.8277 12.5728C40.8558 12.615 40.884 12.6643 40.9122 12.7206C40.8699 12.8333 40.8418 12.9177 40.8277 12.9741C40.8277 13.0304 40.8488 13.0656 40.891 13.0797C40.8629 13.2064 40.8347 13.3261 40.8066 13.4387C40.7925 13.5373 40.8136 13.6077 40.8699 13.6499C40.8558 13.8611 40.8418 14.002 40.8277 14.0724C40.8136 14.1428 40.8066 14.2061 40.8066 14.2625C40.8347 14.3469 40.8418 14.4033 40.8277 14.4314C40.8277 14.4596 40.8277 14.4807 40.8277 14.4948C40.8277 14.537 40.8206 14.5863 40.8066 14.6426C40.8066 14.699 40.8136 14.7482 40.8277 14.7905C40.7854 14.9172 40.7714 14.9947 40.7854 15.0228C40.8136 15.0369 40.8347 15.0721 40.8488 15.1284C40.9192 15.1988 40.9333 15.2411 40.891 15.2551C40.8629 15.2692 40.8558 15.3044 40.8699 15.3608C40.8558 15.4312 40.8699 15.5016 40.9122 15.572C40.9544 15.6424 40.9403 15.7057 40.8699 15.7621C40.8981 15.7902 40.9122 15.8325 40.9122 15.8888C40.9262 15.9451 40.9544 15.9873 40.9966 16.0155C40.9966 16.1282 41.0037 16.2056 41.0178 16.2478C41.0318 16.2901 41.0318 16.3394 41.0178 16.3957C41.0178 16.5224 41.0318 16.628 41.06 16.7125C41.0882 16.8111 41.1023 16.9167 41.1023 17.0293C41.1304 17.142 41.1304 17.1913 41.1023 17.1772C41.0882 17.1772 41.0741 17.2053 41.06 17.2617C41.1304 17.4165 41.1445 17.5151 41.1023 17.5574C41.1304 17.6982 41.1515 17.7756 41.1656 17.7897C41.2079 17.9446 41.236 18.0291 41.2501 18.0431C41.2642 18.0713 41.2712 18.0924 41.2712 18.1065C41.2994 18.2755 41.3346 18.3881 41.3768 18.4444C41.4191 18.5148 41.4543 18.5853 41.4824 18.6557C41.5247 18.6838 41.5599 18.719 41.588 18.7613C41.6303 18.8035 41.6655 18.8387 41.6936 18.8669C41.7359 18.895 41.7781 18.9302 41.8204 18.9725C41.8626 19.0147 41.8978 19.057 41.926 19.0992C41.9823 19.0992 42.0245 19.1133 42.0527 19.1414C42.0809 19.1696 42.109 19.1978 42.1372 19.2259C42.2076 19.24 42.271 19.2541 42.3273 19.2682C42.3977 19.2823 42.4681 19.2893 42.5385 19.2893C42.6934 19.2752 42.7849 19.2682 42.8131 19.2682C42.8412 19.2823 42.8694 19.2823 42.8976 19.2682C43.0524 19.2259 43.1369 19.1978 43.151 19.1837C43.1932 19.1555 43.2285 19.1203 43.2566 19.0781C43.2989 19.0358 43.3552 19.0077 43.4256 18.9936C43.4537 18.9654 43.4889 18.9232 43.5312 18.8669C43.5734 18.8246 43.6298 18.8035 43.7002 18.8035C43.8269 18.8035 43.8973 18.8669 43.9114 18.9936C43.841 18.9936 43.8128 19.0358 43.8269 19.1203C43.855 19.2048 43.8269 19.24 43.7424 19.2259C43.7565 19.2823 43.7354 19.3175 43.679 19.3315C43.6227 19.3456 43.5805 19.3667 43.5523 19.3949C43.4115 19.4231 43.32 19.4442 43.2777 19.4583C43.2496 19.4864 43.2073 19.5005 43.151 19.5005C43.1228 19.5287 43.0947 19.5427 43.0665 19.5427C43.0384 19.5568 42.9891 19.5779 42.9187 19.6061C42.8905 19.6202 42.8553 19.6413 42.8131 19.6695C42.7708 19.6976 42.7286 19.7188 42.6863 19.7328C42.6019 19.761 42.5244 19.761 42.454 19.7328C42.4118 19.8032 42.3554 19.8384 42.285 19.8384C42.2146 19.8525 42.1301 19.8736 42.0316 19.9018C41.75 19.944 41.574 19.9581 41.5036 19.944C41.405 20.0004 41.3487 20.0145 41.3346 19.9863C41.3205 19.9581 41.2994 19.944 41.2712 19.944C41.1727 19.93 41.1163 19.93 41.1023 19.944C41.0882 19.9581 41.067 19.9652 41.0389 19.9652L40.7854 19.9018C40.7573 19.7892 40.7221 19.7258 40.6798 19.7117C40.6517 19.6976 40.6376 19.6765 40.6376 19.6484C40.5249 19.6343 40.4545 19.6132 40.4264 19.585C40.3982 19.5709 40.3489 19.5779 40.2785 19.6061C40.18 19.5357 40.1236 19.4794 40.1096 19.4371C40.1096 19.3949 40.0884 19.3667 40.0462 19.3527C39.9054 19.2118 39.8209 19.1062 39.7927 19.0358C39.7787 18.9654 39.7716 18.8739 39.7716 18.7613C39.6731 18.5782 39.6167 18.4585 39.6026 18.4022C39.5886 18.36 39.5956 18.2966 39.6238 18.2121C39.5534 18.1135 39.5252 18.0079 39.5393 17.8953C39.5674 17.7826 39.5463 17.6911 39.4759 17.6207C39.5041 17.5644 39.5041 17.501 39.4759 17.4306C39.4478 17.3743 39.4478 17.3109 39.4759 17.2405C39.4337 17.142 39.4126 17.0786 39.4126 17.0504C39.4266 17.0364 39.4478 17.0223 39.4759 17.0082C39.4196 16.8674 39.3774 16.7477 39.3492 16.6491C39.321 16.4943 39.307 16.4098 39.307 16.3957C39.321 16.3675 39.307 16.3534 39.2647 16.3534C39.2788 16.2126 39.2717 16.1141 39.2436 16.0578C39.2295 15.9029 39.2225 15.8254 39.2225 15.8254C39.2365 15.8254 39.2436 15.8184 39.2436 15.8043C39.2295 15.7339 39.2225 15.6776 39.2225 15.6353C39.2365 15.5931 39.2365 15.5508 39.2225 15.5086C39.2225 15.41 39.2154 15.3044 39.2013 15.1918C39.2013 15.0791 39.2013 14.9806 39.2013 14.8961C39.2154 14.7412 39.2154 14.6497 39.2013 14.6215C39.2013 14.5793 39.2013 14.5441 39.2013 14.5159C39.2154 14.4596 39.2295 14.4103 39.2436 14.3681C39.2577 14.3258 39.2647 14.2836 39.2647 14.2413C39.2647 14.1991 39.2577 14.1498 39.2436 14.0935C39.2436 14.0372 39.2717 13.9879 39.3281 13.9456C39.2858 13.7767 39.2647 13.664 39.2647 13.6077C39.2225 13.4387 39.2084 13.3472 39.2225 13.3331C39.2506 13.319 39.2647 13.2979 39.2647 13.2698C39.2788 13.1994 39.2647 13.1008 39.2225 12.9741V12.7206L39.1802 12.3615C39.1943 12.3193 39.1873 12.2559 39.1591 12.1715C39.145 12.087 39.145 12.0306 39.1591 12.0025C39.1873 11.9884 39.1873 11.9532 39.1591 11.8969C39.145 11.8265 39.1239 11.7561 39.0957 11.6857C39.0957 11.6434 39.1028 11.6012 39.1169 11.5589C39.1309 11.5167 39.1098 11.4815 39.0535 11.4533C39.0957 11.3829 39.0957 11.3196 39.0535 11.2632C39.0253 11.2069 39.0183 11.1436 39.0324 11.0732C38.962 10.9746 38.9338 10.9183 38.9479 10.9042C38.9761 10.8901 38.9901 10.8619 38.9901 10.8197C38.962 10.7634 38.9479 10.7141 38.9479 10.6718C38.9479 10.6155 38.9409 10.5522 38.9268 10.4818C38.9127 10.4395 38.8916 10.3973 38.8634 10.355C38.8352 10.3128 38.8282 10.2635 38.8423 10.2072C38.786 10.1227 38.7578 10.0453 38.7578 9.97485C38.7015 9.89037 38.6592 9.80588 38.6311 9.7214C38.6029 9.63691 38.5677 9.55947 38.5255 9.48906C38.4551 9.47498 38.3987 9.4609 38.3565 9.44682C38.3283 9.41866 38.272 9.40458 38.1875 9.40458C38.089 9.57355 38.0256 9.68619 37.9974 9.74252C37.9411 9.78476 37.8918 9.84108 37.8496 9.91149C37.8073 9.96781 37.7651 10.0312 37.7229 10.1016C37.6806 10.2565 37.6595 10.341 37.6595 10.355C37.6595 10.3691 37.6525 10.3902 37.6384 10.4184C37.5257 10.5733 37.4764 10.6578 37.4905 10.6718C37.5046 10.6718 37.5117 10.6859 37.5117 10.7141C37.4694 10.8408 37.4131 10.9394 37.3427 11.0098C37.2723 11.0661 37.2371 11.1365 37.2371 11.221C37.1667 11.4463 37.0822 11.5871 36.9836 11.6434C37.0118 11.7138 37.0118 11.7702 36.9836 11.8124C36.9555 11.8546 36.9273 11.8969 36.8991 11.9391C36.8851 12.1363 36.871 12.27 36.8569 12.3404C36.8428 12.3967 36.8217 12.4531 36.7935 12.5094C36.7935 12.6502 36.7794 12.7347 36.7513 12.7628C36.7372 12.7769 36.7231 12.798 36.709 12.8262L36.6457 13.1008C36.6175 13.2134 36.6034 13.2909 36.6034 13.3331C36.6034 13.3613 36.5823 13.3894 36.5401 13.4176C36.5401 13.5302 36.526 13.6288 36.4978 13.7133C36.4838 13.7555 36.4767 13.8259 36.4767 13.9245C36.4908 14.009 36.4767 14.0724 36.4345 14.1146C36.4626 14.2695 36.4697 14.3751 36.4556 14.4314C36.4556 14.4877 36.4556 14.537 36.4556 14.5793C36.4697 14.6778 36.4697 14.7412 36.4556 14.7694C36.4556 14.7834 36.4556 14.8046 36.4556 14.8327C36.4697 14.875 36.4838 14.9172 36.4978 14.9594C36.5119 15.0017 36.526 15.0439 36.5401 15.0862C36.3711 15.227 36.2796 15.3396 36.2655 15.4241C36.1669 15.4241 36.0754 15.4382 35.9909 15.4664C35.8642 15.5368 35.7727 15.6001 35.7163 15.6564C35.66 15.6987 35.5755 15.7128 35.4629 15.6987C35.3643 15.7691 35.301 15.8113 35.2728 15.8254C35.2587 15.8395 35.2376 15.8325 35.2094 15.8043C35.1531 15.8606 35.0757 15.8817 34.9771 15.8677C34.8926 15.8395 34.8433 15.7902 34.8293 15.7198C34.8433 15.6494 34.8504 15.579 34.8504 15.5086C34.8645 15.4382 34.8926 15.3678 34.9349 15.2974C34.9067 15.1847 34.8785 15.1003 34.8504 15.0439C34.8363 14.9735 34.8152 14.9242 34.787 14.8961C34.7589 14.7553 34.787 14.6215 34.8715 14.4948C34.8433 14.3962 34.8293 14.3399 34.8293 14.3258C34.8433 14.3117 34.8504 14.2906 34.8504 14.2625C34.8222 14.178 34.8081 14.1005 34.8081 14.0301C34.7659 13.8611 34.7518 13.7555 34.7659 13.7133C34.7941 13.657 34.8081 13.6077 34.8081 13.5655C34.7518 13.4387 34.7307 13.3754 34.7448 13.3754C34.7589 13.3613 34.7659 13.3402 34.7659 13.312C34.7237 13.2557 34.7025 13.1571 34.7025 13.0163C34.6603 12.8614 34.611 12.7417 34.5547 12.6572C34.5688 12.5024 34.5617 12.4179 34.5336 12.4038C34.5195 12.3897 34.5054 12.3686 34.4913 12.3404C34.4913 12.2559 34.4984 12.1855 34.5124 12.1292C34.5406 12.0588 34.5265 12.0166 34.4702 12.0025C34.4984 11.8335 34.5054 11.7279 34.4913 11.6857C34.4913 11.6434 34.4984 11.6082 34.5124 11.5801C34.428 11.3407 34.3364 11.1928 34.2379 11.1365C34.1956 10.9675 34.1604 10.869 34.1323 10.8408C34.1041 10.8127 34.0971 10.7634 34.1111 10.693C34.0126 10.5381 33.9492 10.4536 33.921 10.4395C33.8929 10.4254 33.8788 10.3973 33.8788 10.355C33.8506 10.3269 33.8084 10.3128 33.7521 10.3128C33.7098 10.2987 33.6817 10.2776 33.6676 10.2494C33.5831 10.2635 33.4986 10.2705 33.4141 10.2705C33.3297 10.2565 33.2452 10.2494 33.1607 10.2494C33.0621 10.3902 32.9917 10.4818 32.9495 10.524C32.9213 10.5522 32.9002 10.5944 32.8861 10.6507C32.7594 10.8056 32.7031 10.8901 32.7171 10.9042C32.7031 10.9464 32.6819 10.9887 32.6538 11.0309C32.6397 11.0591 32.6186 11.1013 32.5904 11.1576C32.52 11.2421 32.4778 11.3055 32.4637 11.3477C32.4637 11.3759 32.4496 11.39 32.4214 11.39C32.3933 11.4885 32.3299 11.6082 32.2314 11.749C32.161 11.8758 32.1257 11.9602 32.1257 12.0025C32.1398 12.0447 32.1328 12.0799 32.1046 12.1081C32.0201 12.2348 31.9779 12.3123 31.9779 12.3404C31.992 12.3686 31.992 12.3967 31.9779 12.4249C31.8934 12.5235 31.8512 12.622 31.8512 12.7206C31.823 12.8614 31.7949 12.9529 31.7667 12.9952C31.7385 13.0374 31.7104 13.0867 31.6822 13.143C31.64 13.2698 31.6188 13.3472 31.6188 13.3754C31.6329 13.4035 31.6259 13.4246 31.5977 13.4387C31.5977 13.5655 31.5836 13.6429 31.5555 13.6711C31.5414 13.6851 31.5414 13.7203 31.5555 13.7767C31.4992 13.8048 31.464 13.8611 31.4499 13.9456C31.4358 14.016 31.4076 14.0724 31.3654 14.1146C31.3795 14.2272 31.3865 14.3047 31.3865 14.3469C31.3865 14.3751 31.3724 14.4103 31.3443 14.4525C31.302 14.5089 31.2809 14.5652 31.2809 14.6215C31.2809 14.6638 31.2668 14.699 31.2387 14.7271C31.2809 14.7975 31.2809 14.8679 31.2387 14.9383C31.1964 14.9947 31.1753 15.058 31.1753 15.1284C31.1894 15.2692 31.1894 15.3537 31.1753 15.3819C31.1753 15.396 31.1753 15.4171 31.1753 15.4452C31.1612 15.5297 31.1542 15.6001 31.1542 15.6564C31.1542 15.6987 31.1612 15.7339 31.1753 15.7621C31.1612 15.9029 31.1683 16.0085 31.1964 16.0789C31.2387 16.1352 31.2598 16.2056 31.2598 16.2901C31.302 16.4591 31.302 16.5647 31.2598 16.6069C31.2316 16.6351 31.1964 16.6703 31.1542 16.7125C31.0274 16.8392 30.957 16.9026 30.943 16.9026L30.7106 17.0082C30.6121 17.0927 30.5487 17.149 30.5205 17.1772C30.4924 17.2053 30.4642 17.2335 30.4361 17.2617C30.2671 17.318 30.1756 17.3602 30.1615 17.3884C30.0207 17.4025 29.9432 17.4165 29.9291 17.4306C29.9291 17.4588 29.9221 17.4799 29.908 17.494C29.8517 17.4658 29.8095 17.4517 29.7813 17.4517C29.7531 17.4517 29.7179 17.4306 29.6757 17.3884C29.6898 17.318 29.6827 17.2617 29.6546 17.2194C29.6264 17.1913 29.6264 17.149 29.6546 17.0927C29.6827 16.6421 29.6475 16.283 29.549 16.0155C29.563 15.9733 29.5771 15.9169 29.5912 15.8465C29.6053 15.7761 29.6053 15.6917 29.5912 15.5931C29.6194 15.41 29.6264 15.2974 29.6123 15.2551C29.6123 15.1988 29.6123 15.1566 29.6123 15.1284C29.5982 14.9735 29.5912 14.8961 29.5912 14.8961C29.6053 14.882 29.6123 14.8679 29.6123 14.8538C29.6123 14.713 29.6053 14.6356 29.5912 14.6215C29.5771 14.6074 29.5701 14.5863 29.5701 14.5581C29.5842 14.3751 29.5842 14.2484 29.5701 14.178C29.5701 14.1076 29.5842 14.0372 29.6123 13.9668C29.5982 13.8682 29.5842 13.7907 29.5701 13.7344C29.556 13.664 29.563 13.6077 29.5912 13.5655C29.5208 13.4669 29.4926 13.4106 29.5067 13.3965C29.5208 13.3824 29.5278 13.3613 29.5278 13.3331C29.4997 13.2486 29.4715 13.143 29.4434 13.0163C29.4293 12.8896 29.4293 12.7769 29.4434 12.6784C29.4293 12.5516 29.4222 12.4812 29.4222 12.4672C29.4222 12.439 29.4293 12.4108 29.4434 12.3827C29.4152 12.3404 29.4011 12.3052 29.4011 12.2771C29.4152 12.2348 29.4152 12.1785 29.4011 12.1081C29.3589 12.0095 29.3307 11.9462 29.3166 11.918C29.3026 11.8898 29.3096 11.8758 29.3378 11.8758C29.2955 11.8335 29.2744 11.7702 29.2744 11.6857C29.2744 11.5871 29.2603 11.5097 29.2321 11.4533C29.1758 11.3266 29.1406 11.221 29.1265 11.1365C29.1125 11.052 29.0843 10.9887 29.0421 10.9464C29.0421 10.8479 29.0209 10.7775 28.9787 10.7352C28.9505 10.6789 28.9224 10.6155 28.8942 10.5451C28.8379 10.531 28.7956 10.5099 28.7675 10.4818C28.7393 10.4536 28.7041 10.4254 28.6619 10.3973C28.5351 10.2987 28.4225 10.2283 28.3239 10.1861C28.2254 10.1438 28.1409 10.1438 28.0705 10.1861L27.7959 10.4184Z" fill="white"/>
<path d="M25.9734 2.32861C26.0297 2.42718 26.0509 2.49758 26.0368 2.53982C26.0368 2.56798 26.0649 2.58206 26.1213 2.58206C26.0509 2.69471 26.0227 2.80032 26.0368 2.89888C26.0649 2.99745 26.0931 3.08897 26.1213 3.17346C26.0931 3.34243 26.072 3.42691 26.0579 3.42691C26.0438 3.42691 26.0368 3.44099 26.0368 3.46915C26.0931 3.5818 26.1142 3.6522 26.1001 3.68037C26.0861 3.70853 26.079 3.72965 26.079 3.74373C26.0649 3.80005 26.0649 3.84934 26.079 3.89158C26.0931 3.93382 26.079 3.9831 26.0368 4.03943C26.0649 4.18023 26.072 4.27176 26.0579 4.314C26.0579 4.34216 26.0438 4.36328 26.0157 4.37737C26.0297 4.49001 26.0368 4.56746 26.0368 4.6097C26.0509 4.63786 26.0368 4.66602 25.9945 4.69418C26.0227 4.84907 26.0368 4.95468 26.0368 5.011C26.0368 5.05324 26.0297 5.10957 26.0157 5.17997C26.0157 5.3067 26.0157 5.39118 26.0157 5.43342C26.0297 5.47567 26.0227 5.52495 25.9945 5.58127C26.0368 5.708 26.0509 5.7784 26.0368 5.79248C26.0227 5.79248 26.0086 5.80657 25.9945 5.83473C26.0227 5.86289 26.0297 5.89809 26.0157 5.94033C26.0157 5.98258 26.0086 6.02482 25.9945 6.06706C26.0086 6.26419 26.0016 6.41204 25.9734 6.5106C25.9593 6.59509 25.9453 6.68661 25.9312 6.78518C25.9453 6.89783 25.9453 6.96823 25.9312 6.99639C25.9171 7.01047 25.9101 7.04567 25.9101 7.102C25.9241 7.22873 25.9241 7.29209 25.9101 7.29209C25.9101 7.29209 25.903 7.30617 25.8889 7.33433C25.8749 7.41882 25.8819 7.4681 25.9101 7.48218C25.9382 7.48218 25.9382 7.51034 25.9101 7.56666C25.8396 7.69339 25.8256 7.7638 25.8678 7.77788C25.9101 7.77788 25.9241 7.799 25.9101 7.84124C25.9101 7.9398 25.896 8.03133 25.8678 8.11581C25.8537 8.2003 25.8608 8.27774 25.8889 8.34815C25.8749 8.5312 25.8678 8.64384 25.8678 8.68609C25.8819 8.71425 25.8678 8.75649 25.8256 8.81281C25.8678 8.95362 25.8749 9.02403 25.8467 9.02403C25.8326 9.02403 25.8256 9.04515 25.8256 9.08739C25.8537 9.28452 25.8326 9.42533 25.7622 9.50981C25.7904 9.67878 25.8044 9.78439 25.8044 9.82663C25.8044 9.86887 25.8044 9.93928 25.8044 10.0378C25.7763 10.1787 25.7552 10.2631 25.7411 10.2913C25.7411 10.3195 25.734 10.3476 25.72 10.3758C25.734 10.4462 25.7411 10.5025 25.7411 10.5448C25.7411 10.587 25.7552 10.6363 25.7833 10.6926C25.7692 10.8052 25.7622 10.8756 25.7622 10.9038C25.7763 10.932 25.7833 10.9531 25.7833 10.9672C25.7552 11.1221 25.7481 11.2206 25.7622 11.2629C25.7763 11.3051 25.7763 11.3544 25.7622 11.4107C25.734 11.5374 25.72 11.6219 25.72 11.6642C25.734 11.7064 25.7411 11.7557 25.7411 11.812C25.7411 11.8683 25.734 11.9247 25.72 11.981C25.7059 12.0232 25.72 12.0655 25.7622 12.1077C25.72 12.15 25.6988 12.2063 25.6988 12.2767C25.6988 12.3471 25.7059 12.4245 25.72 12.509C25.6918 12.6498 25.6988 12.7273 25.7411 12.7414C25.6848 12.8118 25.6636 12.9033 25.6777 13.0159C25.7059 13.1286 25.6848 13.199 25.6144 13.2271C25.6707 13.3257 25.6707 13.4032 25.6144 13.4595C25.6144 13.5862 25.6214 13.6566 25.6355 13.6707C25.6496 13.6848 25.6636 13.7059 25.6777 13.734C25.6918 13.8889 25.6918 13.9734 25.6777 13.9875C25.6636 13.9875 25.6566 14.0016 25.6566 14.0297C25.6707 14.1424 25.6707 14.2198 25.6566 14.2621C25.6425 14.2902 25.6355 14.3184 25.6355 14.3466C25.6496 14.4874 25.6425 14.5789 25.6144 14.6211C25.6003 14.6493 25.5932 14.6986 25.5932 14.769C25.5932 14.8676 25.5932 14.938 25.5932 14.9802C25.6073 15.0224 25.6003 15.0576 25.5721 15.0858C25.6003 15.2829 25.6003 15.3956 25.5721 15.4237C25.544 15.4519 25.544 15.4871 25.5721 15.5294C25.544 15.7406 25.5299 15.8884 25.5299 15.9729C25.544 16.0574 25.544 16.1419 25.5299 16.2263C25.5158 16.3531 25.5017 16.4305 25.4876 16.4587C25.4876 16.4728 25.4876 16.4939 25.4876 16.522C25.5158 16.6347 25.5228 16.6981 25.5088 16.7121C25.5088 16.7262 25.5088 16.7403 25.5088 16.7544C25.5228 16.9233 25.5228 17.0219 25.5088 17.0501C25.5088 17.0782 25.5088 17.1134 25.5088 17.1557C25.5088 17.1979 25.5158 17.2331 25.5299 17.2613C25.558 17.3035 25.5721 17.3458 25.5721 17.388C25.558 17.4725 25.558 17.5288 25.5721 17.557C25.6003 17.5851 25.6003 17.6133 25.5721 17.6415C25.6707 17.7823 25.7129 17.8597 25.6988 17.8738C25.6988 17.8879 25.7059 17.909 25.72 17.9372C25.734 17.9794 25.7552 18.0216 25.7833 18.0639C25.8115 18.1061 25.8326 18.1413 25.8467 18.1695C25.8749 18.2821 25.9101 18.3596 25.9523 18.4018C26.0086 18.4441 26.0509 18.5004 26.079 18.5708C26.2057 18.613 26.2973 18.6834 26.3536 18.782C26.4662 18.782 26.5648 18.7961 26.6493 18.8243C26.7338 18.8524 26.8323 18.8595 26.945 18.8454C27.114 18.7468 27.2759 18.6975 27.4308 18.6975C27.4167 18.7679 27.4026 18.8172 27.3885 18.8454C27.3745 18.8876 27.3674 18.9439 27.3674 19.0143C27.2548 19.0425 27.1914 19.0566 27.1773 19.0566C27.1632 19.0707 27.1492 19.0918 27.1351 19.12C27.0788 19.1481 27.0365 19.1763 27.0084 19.2044C26.9802 19.2326 26.952 19.2608 26.9239 19.2889C26.7971 19.2889 26.6986 19.3171 26.6282 19.3734C26.5578 19.4438 26.4874 19.4438 26.417 19.3734C26.3466 19.3875 26.2902 19.4156 26.248 19.4579C26.2057 19.5142 26.1494 19.5283 26.079 19.5001C25.9382 19.5846 25.8537 19.6128 25.8256 19.5846C25.727 19.6691 25.5932 19.6973 25.4243 19.6691C25.2694 19.6409 25.1426 19.5846 25.0441 19.5001C24.8751 19.4438 24.7765 19.4016 24.7484 19.3734C24.7202 19.3593 24.685 19.3382 24.6428 19.31C24.6287 19.2256 24.6076 19.1763 24.5794 19.1622C24.5653 19.1481 24.5442 19.127 24.5161 19.0988C24.4175 19.0143 24.3682 18.951 24.3682 18.9087C24.3682 18.8806 24.3541 18.8735 24.326 18.8876C24.2978 18.7609 24.2696 18.6905 24.2415 18.6764C24.2133 18.6623 24.2133 18.6271 24.2415 18.5708C24.157 18.5004 24.1218 18.3948 24.1359 18.254C24.0936 18.1695 24.0584 18.085 24.0303 18.0005C24.0021 17.9301 23.9951 17.8316 24.0091 17.7048C24.0232 17.6063 24.0232 17.5429 24.0091 17.5147C23.9951 17.5007 23.988 17.4795 23.988 17.4514C24.0021 17.2965 24.0021 17.1909 23.988 17.1346C23.9739 17.0782 23.9669 17.0149 23.9669 16.9445C23.9669 16.9163 23.9669 16.867 23.9669 16.7966C23.9669 16.7262 23.9739 16.6558 23.988 16.5854C24.0303 16.4024 24.0443 16.2545 24.0303 16.1419C24.0162 16.0151 24.0232 15.9166 24.0514 15.8462C24.0655 15.8039 24.0655 15.7546 24.0514 15.6983C24.0373 15.642 24.0514 15.5927 24.0936 15.5505C24.0796 15.4097 24.0655 15.3322 24.0514 15.3181C24.0514 15.3041 24.0514 15.29 24.0514 15.2759C24.0655 15.1069 24.0725 14.9309 24.0725 14.7479C24.0866 14.5507 24.0936 14.3536 24.0936 14.1565C24.0796 14.0579 24.0796 14.0016 24.0936 13.9875C24.1077 13.9734 24.1148 13.9523 24.1148 13.9241C24.1148 13.8678 24.1077 13.7974 24.0936 13.7129C24.0796 13.6284 24.0796 13.544 24.0936 13.4595C24.0936 13.4032 24.1007 13.3539 24.1148 13.3116C24.1429 13.2553 24.157 13.199 24.157 13.1427C24.1429 13.03 24.1359 12.9596 24.1359 12.9314C24.15 12.8892 24.157 12.854 24.157 12.8258C24.1429 12.685 24.1429 12.6146 24.157 12.6146C24.1711 12.6005 24.1781 12.5865 24.1781 12.5724C24.1781 12.4175 24.1781 12.326 24.1781 12.2978C24.1922 12.2556 24.1852 12.2133 24.157 12.1711C24.1711 12.1429 24.1852 12.1077 24.1992 12.0655C24.2133 12.0232 24.2204 11.981 24.2204 11.9387C24.1781 11.7839 24.164 11.6994 24.1781 11.6853C24.2063 11.6712 24.2274 11.6501 24.2415 11.6219C24.2133 11.5797 24.2063 11.5163 24.2204 11.4318C24.2344 11.3333 24.2274 11.2488 24.1992 11.1784C24.2415 11.0376 24.2556 10.9531 24.2415 10.9249C24.2415 10.8968 24.2556 10.8616 24.2837 10.8193C24.2696 10.763 24.2556 10.7067 24.2415 10.6504C24.2415 10.594 24.2485 10.5166 24.2626 10.418C24.3189 10.235 24.333 10.0942 24.3048 9.9956C24.2767 9.89703 24.2978 9.81255 24.3682 9.74215C24.3119 9.57318 24.2908 9.43237 24.3048 9.31972C24.333 9.20708 24.3471 9.05219 24.3471 8.85506C24.3752 8.72833 24.3823 8.6368 24.3682 8.58048C24.3682 8.51008 24.3682 8.43967 24.3682 8.36927C24.3682 8.29886 24.3752 8.22846 24.3893 8.15806C24.4034 8.08765 24.3964 8.01725 24.3682 7.94685C24.3964 7.91868 24.4104 7.8694 24.4104 7.799C24.4245 7.71451 24.4316 7.64411 24.4316 7.58779C24.4034 7.51738 24.3893 7.46106 24.3893 7.41882C24.4034 7.37657 24.4104 7.34137 24.4104 7.31321C24.4386 7.13016 24.4597 7.01047 24.4738 6.95415C24.4879 6.88375 24.4949 6.81334 24.4949 6.74294C24.4809 6.55989 24.4738 6.405 24.4738 6.27827C24.4738 6.15154 24.4809 6.02482 24.4949 5.89809C24.5231 5.7432 24.5301 5.65872 24.5161 5.64464C24.5161 5.63056 24.5161 5.60943 24.5161 5.58127C24.5301 5.42638 24.5372 5.3419 24.5372 5.32782C24.5513 5.31374 24.5513 5.29262 24.5372 5.26445C24.5231 5.10957 24.5161 5.011 24.5161 4.96876C24.5301 4.92652 24.5372 4.88427 24.5372 4.84203C24.509 4.75755 24.4949 4.70826 24.4949 4.69418C24.509 4.66602 24.5161 4.63786 24.5161 4.6097C24.5301 4.45481 24.5301 4.37032 24.5161 4.35624C24.5161 4.34216 24.5161 4.32104 24.5161 4.29288C24.5161 4.15207 24.5161 4.06759 24.5161 4.03943C24.5301 4.01126 24.5372 3.9831 24.5372 3.95494C24.509 3.8423 24.4879 3.76485 24.4738 3.72261C24.4738 3.66629 24.4738 3.60996 24.4738 3.55364C24.4879 3.41283 24.4879 3.32131 24.4738 3.27906C24.4738 3.23682 24.4879 3.18754 24.5161 3.13122C24.502 2.8496 24.4809 2.64543 24.4527 2.5187C24.4386 2.37789 24.4386 2.23709 24.4527 2.09628C24.4245 1.96955 24.3964 1.88507 24.3682 1.84282C24.34 1.80058 24.333 1.75834 24.3471 1.7161C24.3752 1.64569 24.34 1.55417 24.2415 1.44152C24.1429 1.31479 24.0584 1.23031 23.988 1.18807C23.9176 1.21623 23.8683 1.22327 23.8402 1.20919C23.812 1.19511 23.7698 1.18103 23.7134 1.16695C23.6571 1.26551 23.6078 1.31479 23.5656 1.31479C23.5374 1.30071 23.5093 1.29367 23.4811 1.29367C23.3262 1.37816 23.2488 1.43448 23.2488 1.46264C23.108 1.57529 23.0165 1.63865 22.9742 1.65273C22.932 1.65273 22.8968 1.67385 22.8686 1.7161C22.6574 1.75834 22.5518 1.81466 22.5518 1.88507C22.4955 1.8569 22.4532 1.84986 22.4251 1.86394C22.3828 1.87803 22.3335 1.88507 22.2772 1.88507C22.249 1.8569 22.2279 1.82874 22.2138 1.80058C22.1857 1.75834 22.1505 1.73018 22.1082 1.7161C22.1364 1.65977 22.1364 1.62457 22.1082 1.61049C22.0801 1.58233 22.073 1.53305 22.0871 1.46264C22.2561 1.36408 22.3687 1.30071 22.4251 1.27255C22.4673 1.23031 22.5236 1.18807 22.594 1.14582C22.6926 1.04726 22.7489 0.997976 22.763 0.997976C22.7771 0.997976 22.7912 0.990936 22.8052 0.976855C23.0165 0.836047 23.1502 0.730441 23.2065 0.660037C23.3333 0.660037 23.4107 0.617795 23.4389 0.53331C23.5656 0.476987 23.6571 0.462906 23.7134 0.491068C23.7979 0.434744 23.8683 0.392502 23.9247 0.36434C24.1922 0.293936 24.3471 0.195371 24.3893 0.0686438C24.4738 0.0686438 24.5513 0.0686438 24.6217 0.0686438C24.6921 0.0545631 24.7625 0.0475227 24.8329 0.0475227C24.8892 0.0052803 24.9666 -0.00880049 25.0652 0.0052803C25.206 0.089765 25.2975 0.132007 25.3398 0.132007C25.4243 0.216492 25.4806 0.258734 25.5088 0.258734C25.5369 0.258734 25.5651 0.265775 25.5932 0.279856C25.6214 0.308017 25.6566 0.343219 25.6988 0.385462C25.7411 0.413623 25.7763 0.455866 25.8044 0.512189C25.8749 0.723401 25.903 0.864208 25.8889 0.934612C25.8889 0.990936 25.896 1.0543 25.9101 1.1247C25.9664 1.26551 25.9875 1.35 25.9734 1.37816C25.9593 1.40632 25.9523 1.43448 25.9523 1.46264C25.9664 1.64569 25.9805 1.76538 25.9945 1.8217C26.0086 1.87803 26.0157 1.93435 26.0157 1.99067C26.0016 2.06108 26.0016 2.13148 26.0157 2.20188C26.0438 2.27229 26.0297 2.31453 25.9734 2.32861Z" fill="white"/>
<path d="M22.6732 16.67C22.7295 16.5996 22.7718 16.5644 22.7999 16.5644C22.8281 16.5644 22.8562 16.5574 22.8844 16.5433C23.0956 16.487 23.2294 16.5292 23.2857 16.67C23.2294 16.6982 23.1801 16.7334 23.1379 16.7756C23.1097 16.8319 23.0534 16.8601 22.9689 16.8601C22.8562 17.0009 22.7858 17.0643 22.7577 17.0502C22.7295 17.0502 22.7154 17.0713 22.7154 17.1136C22.5042 17.2262 22.3705 17.3177 22.3141 17.3881C22.2437 17.4022 22.1804 17.4233 22.124 17.4515C22.0818 17.4797 22.0325 17.4797 21.9762 17.4515C21.934 17.4937 21.8847 17.5219 21.8283 17.536C21.772 17.5641 21.7087 17.5923 21.6383 17.6205C21.4693 17.6909 21.3496 17.7542 21.2792 17.8106C21.2088 17.8669 21.1384 17.8669 21.068 17.8106C20.8709 17.8528 20.7441 17.8598 20.6878 17.8317C20.6315 17.8176 20.5611 17.8176 20.4766 17.8317C20.2795 17.7331 20.1739 17.6627 20.1598 17.6205C20.033 17.5501 19.9626 17.5008 19.9486 17.4726C19.9345 17.4445 19.9134 17.4093 19.8852 17.367C19.857 17.3107 19.8218 17.2403 19.7796 17.1558C19.7514 17.0854 19.7374 17.0009 19.7374 16.9023C19.6951 16.8038 19.674 16.7404 19.674 16.7123C19.6881 16.6841 19.674 16.67 19.6317 16.67C19.6599 16.6278 19.6669 16.5926 19.6529 16.5644C19.6529 16.5222 19.6529 16.4658 19.6529 16.3954C19.6247 16.2265 19.6177 16.1209 19.6317 16.0786C19.6458 16.0364 19.6177 16.0012 19.5473 15.973C19.6317 15.9167 19.6317 15.8322 19.5473 15.7196C19.5754 15.6632 19.5965 15.614 19.6106 15.5717C19.6247 15.5154 19.6247 15.452 19.6106 15.3816C19.6106 15.269 19.5895 15.1563 19.5473 15.0437C19.5473 15.0014 19.5543 14.9592 19.5684 14.917C19.5825 14.8747 19.5895 14.8325 19.5895 14.7902C19.5754 14.6213 19.5754 14.5157 19.5895 14.4734C19.6036 14.4171 19.6036 14.3678 19.5895 14.3256C19.6036 14.1988 19.6106 14.1143 19.6106 14.0721C19.6247 14.0299 19.6247 13.9876 19.6106 13.9454C19.5965 13.8891 19.5754 13.8257 19.5473 13.7553C19.5895 13.6145 19.6106 13.5159 19.6106 13.4596C19.6106 13.2484 19.5965 13.1217 19.5684 13.0794C19.5402 13.0231 19.5191 12.9668 19.505 12.9104C19.4205 13.0231 19.3713 13.0865 19.3572 13.1005C19.3431 13.1146 19.336 13.1357 19.336 13.1639C19.2093 13.2625 19.1389 13.3188 19.1248 13.3329C19.1108 13.3329 19.1108 13.3469 19.1248 13.3751C19.0404 13.4596 18.9911 13.5159 18.977 13.5441C18.9629 13.5582 18.9418 13.5722 18.9136 13.5863C18.8573 13.699 18.8151 13.7623 18.7869 13.7764C18.7728 13.7764 18.7517 13.7905 18.7235 13.8187C18.5968 13.9454 18.5475 14.0299 18.5757 14.0721C18.4912 14.1425 18.4419 14.1918 18.4278 14.22C18.4138 14.234 18.4067 14.2622 18.4067 14.3044C18.3082 14.4452 18.2518 14.5297 18.2377 14.5579C18.2237 14.572 18.2096 14.5931 18.1955 14.6213C18.0547 14.7339 17.9632 14.8043 17.9209 14.8325C17.8787 14.8465 17.8435 14.8677 17.8153 14.8958C17.7731 15.0226 17.7238 15.0859 17.6675 15.0859C17.5548 15.1704 17.4985 15.2267 17.4985 15.2549C17.3859 15.2971 17.3084 15.3394 17.2662 15.3816C17.2239 15.4239 17.1817 15.4591 17.1394 15.4872C17.1113 15.5154 17.0831 15.5435 17.055 15.5717C17.0268 15.5999 16.9986 15.628 16.9705 15.6562C16.8297 15.7125 16.7522 15.7477 16.7381 15.7618C16.7241 15.7759 16.6818 15.79 16.6114 15.804C16.4847 15.9026 16.3932 15.9801 16.3368 16.0364C16.2805 16.0786 16.2172 16.1209 16.1467 16.1631C15.9637 16.1913 15.8581 16.1913 15.8299 16.1631C15.8018 16.1209 15.7525 16.0927 15.6821 16.0786C15.5976 15.9378 15.5483 15.8533 15.5342 15.8252C15.4779 15.6703 15.4427 15.5788 15.4286 15.5506C15.4145 15.5083 15.4005 15.4661 15.3864 15.4239C15.4286 15.3253 15.4286 15.2197 15.3864 15.107C15.3582 14.9944 15.3723 14.8958 15.4286 14.8113C15.4005 14.755 15.3864 14.6987 15.3864 14.6424C15.4005 14.5861 15.4075 14.5297 15.4075 14.4734C15.4075 14.403 15.4005 14.3467 15.3864 14.3044C15.3723 14.2481 15.3653 14.1988 15.3653 14.1566C15.3793 14.0721 15.3793 14.0017 15.3653 13.9454C15.3653 13.875 15.3723 13.8187 15.3864 13.7764C15.3864 13.7482 15.4005 13.713 15.4286 13.6708C15.4568 13.6286 15.4568 13.5793 15.4286 13.523C15.4286 13.3821 15.4357 13.2977 15.4498 13.2695C15.4638 13.2273 15.4568 13.1709 15.4286 13.1005C15.4709 13.016 15.485 12.9316 15.4709 12.8471C15.4568 12.7485 15.4568 12.6218 15.4709 12.4669C15.4709 12.3824 15.4779 12.305 15.492 12.2346C15.5061 12.1642 15.492 12.0938 15.4498 12.0234C15.4357 11.8685 15.4357 11.7277 15.4498 11.6009C15.4779 11.4601 15.4498 11.3545 15.3653 11.2841C15.3512 11.1715 15.3301 11.1011 15.3019 11.0729C15.2737 11.0447 15.2526 11.0095 15.2385 10.9673C15.0696 11.0095 14.971 11.0377 14.9428 11.0518C14.9147 11.0659 14.8865 11.0799 14.8584 11.094C14.7598 11.1081 14.6894 11.1292 14.6471 11.1574C14.6049 11.1715 14.5627 11.1855 14.5204 11.1996C14.4923 11.1715 14.4571 11.1574 14.4148 11.1574C14.3726 11.1433 14.3303 11.1222 14.2881 11.094C14.2881 11.0236 14.3022 10.9673 14.3303 10.925C14.3585 10.8828 14.3796 10.8265 14.3937 10.7561C14.4782 10.6998 14.5345 10.6716 14.5627 10.6716C14.5767 10.6575 14.5908 10.6364 14.6049 10.6082C14.7035 10.4956 14.7598 10.4393 14.7739 10.4393C14.788 10.4393 14.8091 10.4322 14.8372 10.4181C14.9499 10.3196 15.0062 10.2492 15.0062 10.2069C15.1189 10.1647 15.2033 10.1365 15.2597 10.1224C15.316 10.1084 15.3723 10.0872 15.4286 10.0591C15.5835 9.96052 15.6821 9.91123 15.7243 9.91123C15.7666 9.89715 15.8018 9.88307 15.8299 9.86899C15.9848 9.82675 16.0623 9.79859 16.0623 9.78451C16.0763 9.75634 16.0975 9.74226 16.1256 9.74226C16.182 9.75634 16.2312 9.76338 16.2735 9.76338C16.3157 9.7493 16.372 9.73522 16.4424 9.72114C16.5551 9.66482 16.6255 9.67186 16.6537 9.74226C16.6818 9.79859 16.717 9.84083 16.7593 9.86899C16.7593 9.96756 16.7733 10.045 16.8015 10.1013C16.8297 10.1436 16.8649 10.1858 16.9071 10.2281C16.9212 10.2985 16.9212 10.3689 16.9071 10.4393C16.893 10.5097 16.9001 10.566 16.9282 10.6082C16.9142 10.7913 16.9071 10.8898 16.9071 10.9039C16.9071 10.918 16.9071 10.9603 16.9071 11.0307C16.9071 11.1292 16.9071 11.1926 16.9071 11.2207C16.9212 11.2348 16.9282 11.2489 16.9282 11.263C16.9282 11.3193 16.9071 11.3686 16.8649 11.4108C16.8367 11.4531 16.8156 11.5024 16.8015 11.5587C16.8156 11.5868 16.8297 11.622 16.8437 11.6643C16.8719 11.6925 16.893 11.7347 16.9071 11.791C16.9071 11.9459 16.9142 12.0445 16.9282 12.0867C16.9423 12.1149 16.9142 12.143 16.8437 12.1712C16.8719 12.3683 16.893 12.5091 16.9071 12.5936C16.9212 12.664 16.9001 12.7344 16.8437 12.8048C16.886 12.8752 16.9001 12.9456 16.886 13.016C16.886 13.0865 16.9001 13.1569 16.9282 13.2273C16.8578 13.3258 16.8297 13.3892 16.8437 13.4173C16.8719 13.4455 16.893 13.4807 16.9071 13.523C16.8508 13.6215 16.8508 13.699 16.9071 13.7553C16.9071 13.882 16.9071 13.9947 16.9071 14.0932C16.9071 14.1777 16.9071 14.2692 16.9071 14.3678C16.9071 14.4382 16.9071 14.5086 16.9071 14.579C16.9071 14.6353 16.9212 14.6776 16.9494 14.7057C16.9916 14.6776 17.0338 14.6565 17.0761 14.6424C17.1183 14.6142 17.1535 14.5861 17.1817 14.5579L17.3084 14.3467C17.3647 14.2481 17.3999 14.1988 17.414 14.1988C17.4422 14.1848 17.4492 14.1496 17.4351 14.0932C17.5478 13.9947 17.6041 13.9454 17.6041 13.9454C17.6182 13.9454 17.6323 13.9383 17.6464 13.9243C17.7731 13.8116 17.8364 13.7482 17.8364 13.7342C17.8364 13.706 17.8505 13.6778 17.8787 13.6497C18.0195 13.4948 18.104 13.4103 18.1321 13.3962C18.1744 13.2977 18.2307 13.2273 18.3011 13.185C18.3152 13.0724 18.3715 12.9808 18.4701 12.9104C18.4982 12.7837 18.5405 12.7063 18.5968 12.6781C18.6672 12.5514 18.7024 12.4669 18.7024 12.4247C18.7165 12.3824 18.7376 12.3472 18.7658 12.319C18.8362 12.2486 18.8784 12.1994 18.8925 12.1712C18.9207 12.129 18.9418 12.0938 18.9559 12.0656C19.0122 11.9389 19.0474 11.8755 19.0615 11.8755C19.0756 11.8755 19.0896 11.8685 19.1037 11.8544C19.1741 11.7136 19.2093 11.6361 19.2093 11.622C19.2234 11.608 19.2304 11.5868 19.2304 11.5587C19.329 11.432 19.3924 11.3475 19.4205 11.3052C19.4487 11.2489 19.4769 11.1926 19.505 11.1363C19.505 10.9955 19.5191 10.925 19.5473 10.925C19.5895 10.925 19.6177 10.911 19.6317 10.8828C19.6177 10.7702 19.6529 10.6857 19.7374 10.6294C19.85 10.4604 19.9345 10.3618 19.9908 10.3337C20.0612 10.3055 20.1316 10.2773 20.202 10.2492C20.1739 10.1647 20.1879 10.1154 20.2443 10.1013C20.3006 10.0732 20.3428 10.038 20.371 9.99572C20.5118 10.0239 20.5892 10.0239 20.6033 9.99572C20.6315 9.96756 20.6667 9.96052 20.7089 9.9746C20.7652 9.90419 20.8357 9.84787 20.9201 9.80563C21.0609 9.90419 21.1454 9.96756 21.1736 9.99572C21.2158 10.0098 21.251 10.0309 21.2792 10.0591C21.237 10.2281 21.2018 10.3337 21.1736 10.3759C21.1595 10.4041 21.1525 10.4393 21.1525 10.4815C21.1525 10.6082 21.1454 10.6998 21.1313 10.7561C21.1173 10.7983 21.1243 10.8476 21.1525 10.9039C21.1243 10.9884 21.1102 11.0729 21.1102 11.1574C21.068 11.2559 21.0539 11.3264 21.068 11.3686C21.0821 11.3968 21.075 11.4108 21.0469 11.4108C21.0609 11.5376 21.068 11.6291 21.068 11.6854C21.068 11.8262 21.068 11.9529 21.068 12.0656C21.0821 12.2627 21.0961 12.4035 21.1102 12.488C21.0961 12.6851 21.0891 12.7978 21.0891 12.826C21.1173 12.9104 21.1243 12.9949 21.1102 13.0794C21.1102 13.1639 21.1384 13.2413 21.1947 13.3117C21.1806 13.4244 21.1736 13.523 21.1736 13.6074C21.1736 13.6778 21.1595 13.7271 21.1313 13.7553C21.1454 13.7834 21.1454 13.8257 21.1313 13.882C21.1313 13.9243 21.1313 13.9665 21.1313 14.0087C21.1313 14.0369 21.1384 14.0721 21.1525 14.1143C21.1666 14.1566 21.1736 14.1988 21.1736 14.2411C21.1454 14.4241 21.1313 14.5368 21.1313 14.579C21.1454 14.6072 21.1525 14.6424 21.1525 14.6846C21.1384 14.7269 21.1243 14.7691 21.1102 14.8113C21.0961 14.8536 21.0961 14.8958 21.1102 14.9381C21.1384 15.0789 21.1595 15.1704 21.1736 15.2127C21.2018 15.2408 21.2299 15.269 21.2581 15.2971C21.2299 15.4239 21.2158 15.4943 21.2158 15.5083C21.2299 15.5224 21.237 15.5435 21.237 15.5717C21.2088 15.6844 21.2088 15.7688 21.237 15.8252C21.251 15.966 21.2581 16.0645 21.2581 16.1209C21.2581 16.1772 21.2651 16.2405 21.2792 16.311C21.3496 16.494 21.4059 16.6066 21.4482 16.6489C21.5045 16.6911 21.5538 16.7404 21.596 16.7967C21.765 16.8812 21.8706 16.9164 21.9128 16.9023C21.9692 16.9023 22.0325 16.9023 22.1029 16.9023C22.1452 16.9023 22.1804 16.9023 22.2085 16.9023C22.2367 16.9164 22.286 16.9094 22.3564 16.8812L22.6732 16.67Z" fill="white"/>
<path d="M8.01034 11.0938C8.0385 11.0234 8.06666 10.96 8.09482 10.9037C8.13707 10.8333 8.19339 10.784 8.26379 10.7559C8.27787 10.6714 8.31308 10.6151 8.3694 10.5869C8.42572 10.5587 8.46092 10.5024 8.475 10.4179C8.57357 10.3616 8.64397 10.2912 8.68622 10.2067C8.81294 10.1222 8.87631 10.087 8.87631 10.1011C8.87631 10.1011 8.89039 10.1011 8.91855 10.1011C9.04528 10.0026 9.12272 9.93215 9.15088 9.88991C9.17904 9.84766 9.21425 9.81246 9.25649 9.7843C9.35505 9.72798 9.41842 9.68573 9.44658 9.65757C9.47474 9.62941 9.5029 9.60125 9.53106 9.57309C9.64371 9.51677 9.70707 9.4886 9.72115 9.4886C9.74932 9.4886 9.77748 9.48156 9.80564 9.46748C9.94645 9.36892 10.0309 9.31259 10.0591 9.29851C10.0873 9.28443 10.1084 9.25627 10.1225 9.21403C10.39 9.14362 10.5871 9.07322 10.7138 9.00282C10.8124 8.97466 10.8828 8.96761 10.9251 8.9817C10.9673 8.9817 11.0095 8.97466 11.0518 8.96057C11.263 8.93241 11.3968 8.93241 11.4531 8.96057C11.5235 8.98874 11.5939 9.00282 11.6643 9.00282C11.7769 9.00282 11.8474 9.02394 11.8755 9.06618C11.9037 9.09434 11.9389 9.10842 11.9811 9.10842C12.0234 9.26331 12.0656 9.36188 12.1078 9.40412C12.1642 9.43228 12.2416 9.4534 12.3402 9.46748C12.5092 9.58013 12.5936 9.65757 12.5936 9.69982C12.6922 9.74206 12.7767 9.79134 12.8471 9.84766C12.9316 9.90399 12.9949 9.98847 13.0372 10.1011C13.1498 10.1715 13.2202 10.2208 13.2484 10.249C13.2766 10.2771 13.2977 10.3123 13.3118 10.3546C13.4385 10.4954 13.5089 10.5939 13.523 10.6503C13.5511 10.7066 13.5863 10.7488 13.6286 10.777C13.6567 10.8896 13.6779 10.9952 13.6919 11.0938C13.706 11.1783 13.699 11.2769 13.6708 11.3895C13.7131 11.6289 13.6708 11.8119 13.5441 11.9387C13.5159 12.1076 13.5159 12.1992 13.5441 12.2132C13.5723 12.2132 13.5793 12.2273 13.5652 12.2555C13.537 12.354 13.5159 12.4244 13.5018 12.4667C13.4878 12.5089 13.4737 12.5512 13.4596 12.5934C13.4174 12.7342 13.4033 12.8187 13.4174 12.8469C13.4314 12.861 13.4314 12.8821 13.4174 12.9102C13.3188 13.051 13.2625 13.1355 13.2484 13.1637C13.2343 13.1919 13.2273 13.2271 13.2273 13.2693C13.0865 13.3538 13.0161 13.4031 13.0161 13.4171C13.0301 13.4312 13.0372 13.4664 13.0372 13.5227C12.9105 13.6776 12.84 13.7762 12.826 13.8184C12.826 13.8466 12.7978 13.8677 12.7415 13.8818C12.6852 13.9663 12.6148 14.0508 12.5303 14.1353C12.4035 14.2197 12.3191 14.2761 12.2768 14.3042C12.2487 14.3183 12.2346 14.3465 12.2346 14.3887C12.1501 14.4591 12.1008 14.5084 12.0867 14.5366C12.0726 14.5647 12.0586 14.5929 12.0445 14.6211C11.9037 14.6633 11.8333 14.6915 11.8333 14.7055C11.8333 14.7196 11.8262 14.7267 11.8122 14.7267C11.6854 14.783 11.6009 14.8323 11.5587 14.8745C11.5305 14.9027 11.4953 14.9308 11.4531 14.959C11.3686 14.959 11.2982 14.9872 11.2419 15.0435C11.1856 15.0857 11.1222 15.1209 11.0518 15.1491C11.0095 15.1772 10.9673 15.1984 10.9251 15.2124C10.8828 15.2265 10.8476 15.2547 10.8195 15.2969C10.5942 15.3673 10.4111 15.4448 10.2703 15.5293C10.1295 15.6137 9.97461 15.6278 9.80564 15.5715C9.62259 15.6137 9.52402 15.6278 9.50994 15.6137C9.49586 15.5997 9.47474 15.5856 9.44658 15.5715C9.31985 15.6278 9.23537 15.656 9.19312 15.656C9.15088 15.656 9.09456 15.6419 9.02416 15.6137C8.88335 15.5715 8.78478 15.5504 8.72846 15.5504C8.58765 15.4659 8.48909 15.4166 8.43276 15.4025C8.39052 15.3744 8.34828 15.3462 8.30604 15.3181C8.26379 15.2899 8.21451 15.2617 8.15819 15.2336C8.11594 15.1913 8.09482 15.135 8.09482 15.0646C7.98218 14.9519 7.92585 14.8956 7.92585 14.8956C7.85545 14.7126 7.79209 14.614 7.73576 14.5999C7.7076 14.4591 7.67944 14.3746 7.65128 14.3465C7.60904 14.2338 7.58087 14.1775 7.56679 14.1775C7.56679 14.1634 7.55975 14.1353 7.54567 14.093C7.54567 14.0649 7.53863 14.0226 7.52455 13.9663C7.51047 13.8959 7.50343 13.8396 7.50343 13.7973C7.46119 13.5157 7.44007 13.3186 7.44007 13.2059C7.45415 13.0933 7.44711 12.9806 7.41895 12.868C7.44711 12.8398 7.45415 12.8117 7.44007 12.7835C7.44007 12.7413 7.44711 12.6849 7.46119 12.6145C7.47527 12.4878 7.48935 12.4174 7.50343 12.4033C7.51751 12.3752 7.52455 12.347 7.52455 12.3188C7.53863 12.1921 7.56679 12.0724 7.60904 11.9598C7.62312 11.9175 7.6372 11.8823 7.65128 11.8542C7.67944 11.8119 7.68648 11.7627 7.6724 11.7063C7.75688 11.6641 7.80617 11.6007 7.82025 11.5162C7.84841 11.4177 7.88361 11.3332 7.92585 11.2628L8.01034 11.0938ZM11.1152 10.5447C11.0307 10.5024 10.9814 10.4743 10.9673 10.4602C10.9532 10.432 10.9321 10.4109 10.9039 10.3968C10.7491 10.3546 10.6575 10.3475 10.6294 10.3757C10.6153 10.3898 10.5942 10.3898 10.566 10.3757C10.4956 10.3757 10.4252 10.3616 10.3548 10.3335C10.2844 10.3053 10.2281 10.3264 10.1858 10.3968C10.0309 10.4109 9.94645 10.4109 9.93237 10.3968C9.89012 10.425 9.84084 10.4461 9.78452 10.4602C9.74228 10.4743 9.70707 10.4954 9.67891 10.5235C9.63667 10.608 9.60147 10.6643 9.57331 10.6925C9.54514 10.7066 9.5381 10.7348 9.55218 10.777C9.50994 10.8333 9.44658 10.9037 9.36209 10.9882C9.31985 11.2135 9.27761 11.3613 9.23537 11.4318C9.19312 11.4881 9.14384 11.5374 9.08752 11.5796C9.1016 11.65 9.1016 11.7274 9.08752 11.8119C9.08752 11.8823 9.0664 11.9387 9.02416 11.9809C8.96783 12.1921 8.94671 12.3188 8.96079 12.3611C8.98895 12.3892 8.99599 12.4385 8.98191 12.5089C8.92559 12.692 8.91855 12.7835 8.96079 12.7835C9.00303 12.7694 9.01711 12.7835 9.00303 12.8258C9.00303 12.9806 9.01007 13.0651 9.02416 13.0792C9.05232 13.0792 9.0664 13.0933 9.0664 13.1214L9.12976 13.3749C9.18608 13.4875 9.20721 13.5509 9.19312 13.565C9.17904 13.5791 9.172 13.6002 9.172 13.6284C9.25649 13.7551 9.30577 13.8325 9.31985 13.8607C9.34801 13.8889 9.37617 13.917 9.40434 13.9452C9.41842 14.0578 9.4325 14.1282 9.44658 14.1564C9.47474 14.1705 9.47474 14.1916 9.44658 14.2197C9.51698 14.2338 9.57331 14.2479 9.61555 14.262C9.67187 14.2761 9.71411 14.3183 9.74228 14.3887C9.85492 14.4169 9.91829 14.4662 9.93237 14.5366C10.1577 14.5929 10.3055 14.6211 10.3759 14.6211C10.4463 14.607 10.5378 14.5858 10.6505 14.5577C10.8617 14.5718 11.0025 14.5647 11.0729 14.5366C11.1433 14.4943 11.1926 14.445 11.2208 14.3887C11.2771 14.3324 11.3193 14.2972 11.3475 14.2831C11.3756 14.255 11.4038 14.2268 11.432 14.1986C11.5024 14.0719 11.5587 13.9804 11.6009 13.9241C11.6573 13.8536 11.6784 13.7762 11.6643 13.6917C11.8896 13.396 11.9952 13.1074 11.9811 12.8258C12.0374 12.6568 12.0586 12.5653 12.0445 12.5512C12.0304 12.523 12.0234 12.4949 12.0234 12.4667C12.0797 12.3822 12.0938 12.2836 12.0656 12.171C12.0515 12.0443 12.0304 11.9387 12.0022 11.8542C11.9741 11.6993 11.96 11.6148 11.96 11.6007C11.9741 11.5726 11.9811 11.5514 11.9811 11.5374C11.8826 11.3966 11.8262 11.3191 11.8122 11.305C11.7417 11.1642 11.6784 11.0657 11.6221 11.0093C11.5657 10.953 11.5165 10.8826 11.4742 10.7981C11.3897 10.7277 11.3404 10.6855 11.3264 10.6714C11.3123 10.6573 11.2982 10.6362 11.2841 10.608L11.1152 10.5447Z" fill="white"/>
<path d="M3.9919 13.7133C3.94966 13.5584 3.91446 13.481 3.8863 13.481C3.87222 13.4669 3.85814 13.4458 3.84406 13.4176C3.78773 13.2909 3.75253 13.2205 3.73845 13.2064C3.68213 13.0937 3.63988 13.0233 3.61172 12.9952C3.59764 12.967 3.57652 12.9318 3.54836 12.8896C3.44979 12.8473 3.38643 12.8051 3.35827 12.7628C3.34419 12.7206 3.30899 12.6995 3.25266 12.6995C3.28082 12.615 3.26674 12.5446 3.21042 12.4883C3.1541 12.4319 3.10481 12.3897 3.06257 12.3615C3.02033 12.263 2.98513 12.1926 2.95697 12.1503C2.9288 12.094 2.90064 12.0377 2.87248 11.9814C2.84432 11.9391 2.80912 11.9039 2.76687 11.8758C2.72463 11.8335 2.68943 11.7772 2.66127 11.7068C2.61903 11.6786 2.57678 11.6434 2.53454 11.6012C2.4923 11.5589 2.4571 11.5026 2.42894 11.4322C2.31629 11.2914 2.25293 11.221 2.23885 11.221C2.22476 11.2069 2.21068 11.1858 2.1966 11.1576C2.16844 11.1154 2.14732 11.0661 2.13324 11.0098C2.11916 10.9394 2.07692 10.8901 2.00651 10.8619C1.99243 10.7634 1.95019 10.693 1.87979 10.6507C1.7953 10.524 1.74602 10.4536 1.73194 10.4395C1.71786 10.4114 1.69673 10.4043 1.66857 10.4184C1.62633 10.3198 1.59113 10.2635 1.56297 10.2494C1.54889 10.2213 1.52777 10.2001 1.4996 10.1861C1.4996 10.0875 1.47848 10.0101 1.43624 9.95373C1.394 9.89741 1.35176 9.84108 1.30951 9.78476C1.33767 9.71436 1.32359 9.67211 1.26727 9.65803C1.22503 9.62987 1.21799 9.58763 1.24615 9.53131C1.18983 9.50314 1.15462 9.45386 1.14054 9.38346C1.12646 9.31305 1.10534 9.24265 1.07718 9.17225C1.02086 9.03144 0.985655 8.93287 0.971574 8.87655C0.957494 8.82023 0.950453 8.75686 0.950453 8.68646C0.950453 8.54565 0.950453 8.47525 0.950453 8.47525C0.964534 8.46117 0.971574 8.44708 0.971574 8.433L1.01382 8.11619C1.07014 7.91905 1.11942 7.82049 1.16167 7.82049C1.17575 7.75009 1.21799 7.6656 1.28839 7.56704C1.38696 7.45439 1.44328 7.39103 1.45736 7.37694C1.48552 7.34878 1.51368 7.31358 1.54185 7.27134C1.62633 7.20093 1.68969 7.15165 1.73194 7.12349C1.78826 7.08125 1.8305 7.03197 1.85866 6.97564C1.94315 6.91932 1.99947 6.863 2.02763 6.80667C2.08396 6.80667 2.11916 6.78555 2.13324 6.74331C2.14732 6.70107 2.18956 6.68699 2.25997 6.70107C2.25997 6.63066 2.27405 6.58842 2.30221 6.57434C2.34445 6.54618 2.37965 6.51802 2.40781 6.48985C2.63311 6.40537 2.75983 6.32793 2.788 6.25752C2.9288 6.21528 3.01329 6.18712 3.04145 6.17304C3.14002 6.14488 3.23858 6.09559 3.33715 6.02519C3.50612 5.98295 3.61172 5.96183 3.65396 5.96183C3.69621 5.96183 3.73845 5.95478 3.78069 5.9407C3.9215 5.8703 4.01302 5.82806 4.05527 5.81398C4.11159 5.78582 4.16791 5.77173 4.22424 5.77173C4.39321 5.78582 4.49881 5.78582 4.54105 5.77173C4.59738 5.74357 4.6537 5.72949 4.71002 5.72949C4.73819 5.72949 4.77339 5.73653 4.81563 5.75061C4.87195 5.75061 4.92124 5.75061 4.96348 5.75061C5.0902 5.76469 5.16765 5.77877 5.19581 5.79286C5.23805 5.80694 5.2803 5.81398 5.32254 5.81398C5.3507 5.85622 5.3859 5.88438 5.42814 5.89846C5.48447 5.91254 5.54079 5.92662 5.59711 5.9407C5.69568 6.05335 5.7872 6.13079 5.87169 6.17304C5.95617 6.22936 6.00546 6.27864 6.01954 6.32089C6.03362 6.34905 6.06178 6.36313 6.10402 6.36313C6.10402 6.44761 6.1181 6.53914 6.14626 6.6377C6.18851 6.72219 6.22371 6.79963 6.25187 6.87004C6.28003 7.01084 6.29411 7.10941 6.29411 7.16573C6.30819 7.20798 6.32931 7.25022 6.35748 7.29246C6.35748 7.44735 6.32931 7.54591 6.27299 7.58816C6.21667 7.61632 6.19555 7.68672 6.20963 7.79937C6.11106 7.85569 6.0477 7.97538 6.01954 8.15843C5.94913 8.13027 5.89985 8.13027 5.87169 8.15843C5.84353 8.18659 5.80128 8.20771 5.74496 8.22179C5.6464 8.32036 5.59007 8.3978 5.57599 8.45412C5.57599 8.49637 5.54783 8.51749 5.49151 8.51749C5.33662 8.60197 5.24509 8.6583 5.21693 8.68646C5.18877 8.71462 5.16061 8.74278 5.13245 8.77094C5.06204 8.7991 5.00572 8.83431 4.96348 8.87655C4.93532 8.90471 4.88603 8.92583 4.81563 8.93991C4.78747 8.86951 4.75227 8.82023 4.71002 8.79206C4.66778 8.74982 4.62554 8.70758 4.5833 8.66534C4.61146 8.49637 4.62554 8.41188 4.62554 8.41188C4.6537 8.29924 4.68186 8.22883 4.71002 8.20067C4.75227 8.15843 4.78043 8.10915 4.79451 8.05282C4.75227 7.86977 4.73114 7.75713 4.73114 7.71488C4.73114 7.65856 4.71706 7.60224 4.6889 7.54591C4.66074 7.51775 4.62554 7.48959 4.5833 7.46143C4.55513 7.41919 4.55513 7.37694 4.5833 7.3347C4.51289 7.3347 4.46361 7.31358 4.43545 7.27134C4.42137 7.2291 4.37913 7.22206 4.30872 7.25022C4.28056 7.16573 4.2172 7.12349 4.11863 7.12349C4.02006 7.10941 3.94966 7.06717 3.90742 6.99676C3.75253 7.01084 3.64692 7.02492 3.5906 7.03901C3.54836 7.05309 3.49908 7.06013 3.44275 7.06013C3.38643 7.06013 3.31603 7.06013 3.23154 7.06013C3.14706 7.04605 3.06961 7.05309 2.99921 7.08125C2.9288 7.10941 2.86544 7.14461 2.80912 7.18685C2.75279 7.2291 2.68239 7.25022 2.59791 7.25022C2.48526 7.43327 2.40781 7.56704 2.36557 7.65152C2.36557 7.76417 2.35853 7.84865 2.34445 7.90497C2.34445 7.9613 2.33037 8.00354 2.30221 8.0317C2.33037 8.07394 2.35149 8.11619 2.36557 8.15843C2.39373 8.20067 2.42894 8.23587 2.47118 8.26403C2.5275 8.40484 2.59086 8.52453 2.66127 8.62309C2.74575 8.70758 2.80208 8.80614 2.83024 8.91879C2.90064 8.96103 2.94993 9.01736 2.97809 9.08776C3.00625 9.15816 3.05553 9.21449 3.12593 9.25673C3.18226 9.38346 3.23154 9.4609 3.27378 9.48906C3.31603 9.61579 3.37235 9.70027 3.44275 9.74252C3.54132 9.89741 3.59764 9.98189 3.61172 9.99597C3.6258 10.0101 3.6258 10.0312 3.61172 10.0593C3.68213 10.1579 3.73141 10.2213 3.75957 10.2494C3.78773 10.2776 3.80885 10.3269 3.82293 10.3973C3.86518 10.4254 3.90038 10.4606 3.92854 10.5029C3.97078 10.531 4.01302 10.5592 4.05527 10.5874C4.06935 10.6437 4.08343 10.6859 4.09751 10.7141C4.12567 10.7423 4.13975 10.7775 4.13975 10.8197C4.19607 10.9183 4.23128 10.9746 4.24536 10.9887C4.27352 11.0027 4.30168 11.0239 4.32984 11.052C4.358 11.0943 4.37913 11.1365 4.39321 11.1788C4.42137 11.221 4.46361 11.2562 4.51993 11.2844C4.51993 11.4252 4.53401 11.4885 4.56218 11.4745C4.59034 11.4604 4.61146 11.4674 4.62554 11.4956C4.6537 11.5378 4.68186 11.573 4.71002 11.6012C4.75227 11.6293 4.78747 11.6645 4.81563 11.7068C4.87195 11.8194 4.92124 11.8969 4.96348 11.9391C5.00572 11.9673 5.04092 12.0166 5.06908 12.087C5.15357 12.2137 5.20989 12.2771 5.23805 12.2771C5.2803 12.3756 5.30846 12.4812 5.32254 12.5939C5.3507 12.6924 5.4211 12.7558 5.53375 12.784C5.54783 12.9107 5.57599 12.9952 5.61823 13.0374C5.7168 13.1641 5.75904 13.2275 5.74496 13.2275C5.74496 13.2275 5.752 13.2346 5.76608 13.2486C5.85057 13.3754 5.89281 13.4528 5.89281 13.481C5.89281 13.5091 5.89985 13.5373 5.91393 13.5655C5.97025 13.664 6.01954 13.7274 6.06178 13.7555C6.10402 13.9104 6.12514 14.002 6.12514 14.0301C6.18147 14.1568 6.20963 14.2343 6.20963 14.2625C6.22371 14.2906 6.21667 14.3047 6.18851 14.3047C6.25891 14.4033 6.29411 14.53 6.29411 14.6849C6.29411 14.8398 6.30115 14.9594 6.31523 15.0439C6.23075 15.1847 6.19555 15.2622 6.20963 15.2763C6.23779 15.2903 6.24483 15.3185 6.23075 15.3608C6.20259 15.4312 6.17443 15.5016 6.14626 15.572C6.13218 15.6424 6.0829 15.6846 5.99842 15.6987C5.92801 15.8536 5.88577 15.9381 5.87169 15.9521C5.87169 15.9662 5.85761 15.9803 5.82945 15.9944C5.75904 16.1352 5.70272 16.2197 5.66048 16.2478C5.63232 16.276 5.61823 16.3182 5.61823 16.3746C5.54783 16.4591 5.50559 16.5083 5.49151 16.5224C5.47743 16.5365 5.47743 16.5576 5.49151 16.5858C5.37886 16.6139 5.30142 16.6632 5.25917 16.7336C5.23101 16.8181 5.16061 16.8674 5.04796 16.8815C5.00572 17.0786 4.90715 17.1842 4.75227 17.1983C4.63962 17.3109 4.56922 17.3884 4.54105 17.4306C4.51289 17.4729 4.48473 17.5151 4.45657 17.5574C4.34392 17.5996 4.26648 17.6418 4.22424 17.6841C4.19607 17.7263 4.16087 17.7686 4.11863 17.8108L3.8863 17.9587C3.85814 18.015 3.81589 18.0502 3.75957 18.0643C3.71733 18.0783 3.67509 18.0995 3.63284 18.1276C3.50612 18.2262 3.43571 18.2825 3.42163 18.2966C3.42163 18.3107 3.40755 18.3177 3.37939 18.3177C3.1541 18.36 2.97809 18.4022 2.85136 18.4444C2.72463 18.4867 2.58382 18.536 2.42894 18.5923C2.30221 18.5501 2.2318 18.536 2.21772 18.5501C2.21772 18.5641 2.21068 18.5712 2.1966 18.5712C2.09804 18.5289 2.02763 18.5148 1.98539 18.5289C1.94315 18.5571 1.90795 18.5501 1.87979 18.5078C1.7953 18.5219 1.71786 18.5289 1.64745 18.5289C1.59113 18.543 1.52777 18.543 1.45736 18.5289C1.3588 18.4444 1.28839 18.4022 1.24615 18.4022C1.1335 18.3318 1.04902 18.2966 0.992696 18.2966C0.936372 18.3107 0.873009 18.3036 0.802605 18.2755C0.774443 18.2051 0.725161 18.1558 0.654757 18.1276C0.598433 18.0995 0.54211 18.0502 0.485787 17.9798C0.415383 17.839 0.373141 17.7615 0.35906 17.7474C0.330899 17.7334 0.302737 17.7122 0.274575 17.6841C0.204171 17.5433 0.168969 17.4658 0.168969 17.4517C0.154889 17.4517 0.140808 17.4377 0.126727 17.4095C0.0704039 17.2687 0.0563232 17.1913 0.0844847 17.1772C0.0985655 17.1772 0.0985655 17.149 0.0844847 17.0927C0.0563232 17.0645 0.0492828 17.0293 0.0633635 16.9871C0.0633635 16.9448 0.0563232 16.8885 0.0422424 16.8181C0.0140808 16.7055 0 16.6351 0 16.6069C0 16.5787 0.00704039 16.5506 0.0211212 16.5224C0.0211212 16.3816 0.0281616 16.3042 0.0422424 16.2901C0.0563232 16.276 0.0633635 16.2549 0.0633635 16.2267C0.0774443 16.1704 0.0844847 16.1141 0.0844847 16.0578C0.0844847 16.0014 0.0915251 15.9521 0.105606 15.9099C0.232333 15.6846 0.309777 15.5227 0.337939 15.4241C0.3661 15.3115 0.429464 15.2411 0.52803 15.2129C0.54211 15.1425 0.591393 15.051 0.675878 14.9383C0.732201 14.8398 0.802605 14.7623 0.88709 14.706L1.05606 14.4948C1.15462 14.4244 1.21095 14.3751 1.22503 14.3469C1.25319 14.3188 1.30247 14.3117 1.37288 14.3258C1.52777 14.185 1.61225 14.1146 1.62633 14.1146C1.65449 14.1005 1.71082 14.1076 1.7953 14.1357C1.76714 14.192 1.73898 14.2554 1.71082 14.3258C1.69673 14.3821 1.70378 14.4385 1.73194 14.4948C1.63337 14.6356 1.58409 14.713 1.58409 14.7271C1.58409 14.7412 1.57705 14.7553 1.56297 14.7694C1.52073 14.8398 1.49256 14.889 1.47848 14.9172C1.4644 14.9454 1.44328 14.9806 1.41512 15.0228C1.3588 15.1495 1.33063 15.2199 1.33063 15.234C1.34472 15.2481 1.35176 15.2692 1.35176 15.2974C1.32359 15.4523 1.30951 15.5297 1.30951 15.5297C1.32359 15.5297 1.33063 15.5368 1.33063 15.5508C1.34472 15.7057 1.34472 15.7902 1.33063 15.8043C1.33063 15.8043 1.33063 15.8113 1.33063 15.8254C1.3588 15.9099 1.36584 15.9733 1.35176 16.0155C1.35176 16.0578 1.36584 16.093 1.394 16.1211C1.37992 16.2619 1.394 16.3394 1.43624 16.3534C1.45032 16.3957 1.4644 16.4379 1.47848 16.4802C1.49256 16.5224 1.4996 16.5647 1.4996 16.6069C1.62633 16.7195 1.71786 16.804 1.77418 16.8604C1.8305 16.9167 1.91499 16.9448 2.02763 16.9448C2.14028 17.0716 2.21068 17.1279 2.23885 17.1138C2.28109 17.1138 2.33037 17.1138 2.38669 17.1138C2.47118 17.142 2.5627 17.1701 2.66127 17.1983C2.75983 17.2265 2.84432 17.2476 2.91472 17.2617C3.05553 17.2194 3.1541 17.2124 3.21042 17.2405C3.30899 17.2265 3.38643 17.2265 3.44275 17.2405C3.51316 17.2546 3.58356 17.2546 3.65396 17.2405C3.71029 17.2124 3.75957 17.1772 3.80181 17.1349C3.84406 17.1068 3.90038 17.0856 3.97078 17.0716C4.09751 17.0012 4.16791 16.9308 4.18199 16.8604C4.21016 16.804 4.25944 16.7759 4.32984 16.7759C4.44249 16.621 4.50585 16.5295 4.51993 16.5013C4.54809 16.4731 4.5833 16.452 4.62554 16.4379C4.63962 16.3816 4.6537 16.3394 4.66778 16.3112C4.69594 16.283 4.71706 16.2478 4.73114 16.2056C4.73114 16.0507 4.73114 15.9662 4.73114 15.9521C4.74523 15.9381 4.75227 15.9169 4.75227 15.8888C4.78043 15.6353 4.78043 15.4523 4.75227 15.3396C4.73819 15.227 4.71706 15.1284 4.6889 15.0439C4.64666 14.9172 4.61146 14.8398 4.5833 14.8116C4.56922 14.7694 4.54809 14.7342 4.51993 14.706C4.50585 14.5793 4.47769 14.5018 4.43545 14.4737C4.39321 14.4314 4.37208 14.3751 4.37208 14.3047C4.30168 14.1216 4.21016 14.016 4.09751 13.9879L3.9919 13.7133Z" fill="white"/>
</svg>
